<svg width="164" height="56" viewBox="0 0 164 56" fill="none" xmlns="http://www.w3.org/2000/svg">
<g clip-path="url(#clip0_612_314)">
<path d="M150.939 0.63623H13.0613C12.5679 0.63623 12.0745 0.63623 11.5674 0.63623C11.1426 0.63623 10.7314 0.63623 10.3065 0.64998C9.38827 0.67748 8.47 0.73248 7.56544 0.89748C6.64717 1.06248 5.79743 1.33748 4.96139 1.76373C4.13906 2.18998 3.38526 2.73998 2.7411 3.38623C2.08324 4.03248 1.53502 4.78873 1.12385 5.61373C0.69898 6.45248 0.42487 7.30498 0.260404 8.22623C0.0959385 9.13373 0.0411165 10.055 0.027411 10.9762C0.027411 11.4025 0.0137055 11.815 0 12.2412V44.0312C0 44.4575 0 44.87 0.027411 45.2962C0.054822 46.2175 0.109644 47.1387 0.27411 48.0462C0.438576 48.9675 0.69898 49.8337 1.13756 50.6587C1.54872 51.4837 2.09694 52.2262 2.75481 52.8725C3.39896 53.5325 4.15277 54.0825 4.9751 54.495C5.81113 54.9212 6.66087 55.1962 7.57914 55.3612C8.4837 55.5262 9.41568 55.5812 10.3202 55.6087C10.7451 55.6087 11.1563 55.6225 11.5811 55.6225C12.0883 55.6225 12.5816 55.6225 13.075 55.6225H150.939C151.432 55.6225 151.925 55.6225 152.419 55.6225C152.83 55.6225 153.269 55.6225 153.68 55.6087C154.598 55.5812 155.516 55.5262 156.421 55.3612C157.339 55.1962 158.189 54.9212 159.039 54.495C159.861 54.0825 160.601 53.5325 161.259 52.8725C161.917 52.2262 162.451 51.47 162.876 50.6587C163.301 49.82 163.575 48.9675 163.726 48.0462C163.89 47.1387 163.945 46.2175 163.986 45.2962C163.986 44.87 163.986 44.4575 163.986 44.0312C163.986 43.5362 163.986 43.0412 163.986 42.5325V13.7537C163.986 13.245 163.986 12.75 163.986 12.255C163.986 11.8287 163.986 11.4162 163.986 10.99C163.959 10.0687 163.904 9.14748 163.726 8.23998C163.575 7.31873 163.301 6.46623 162.876 5.62748C162.451 4.80248 161.903 4.04623 161.259 3.39998C160.615 2.75373 159.861 2.20373 159.039 1.77748C158.189 1.35123 157.339 1.07623 156.421 0.91123C155.516 0.74623 154.598 0.69123 153.68 0.66373C153.269 0.66373 152.83 0.64998 152.419 0.64998C151.925 0.64998 151.432 0.64998 150.939 0.64998V0.63623Z" fill="#B6B6B6"/>
<path d="M11.5674 54.4399C11.1563 54.4399 10.7451 54.4399 10.334 54.4261C9.56644 54.3986 8.66188 54.3574 7.77102 54.2061C6.93499 54.0549 6.19489 53.8074 5.49591 53.4499C4.78322 53.0924 4.13906 52.6111 3.57714 52.0474C3.01521 51.4836 2.54923 50.8511 2.17918 50.1224C1.82284 49.4349 1.57614 48.6786 1.43908 47.8399C1.27462 46.9186 1.2335 45.9699 1.20609 45.2549C1.20609 44.9661 1.19238 44.0036 1.19238 44.0036V12.2411C1.19238 12.2411 1.19238 11.2924 1.20609 11.0174C1.21979 10.3024 1.26091 9.35361 1.43908 8.44611C1.58984 7.60736 1.82284 6.85111 2.17918 6.16361C2.54923 5.44861 3.01521 4.80236 3.57714 4.23861C4.13906 3.67486 4.78322 3.19361 5.49591 2.83611C6.19489 2.47861 6.94869 2.23111 7.75732 2.09361C8.67558 1.92861 9.62126 1.88736 10.334 1.87361H11.5674L152.419 1.85986H153.666C154.365 1.90111 155.311 1.94236 156.215 2.10736C157.038 2.25861 157.791 2.49236 158.504 2.86361C159.203 3.22111 159.847 3.70236 160.409 4.26611C160.971 4.82986 161.437 5.47611 161.807 6.19111C162.163 6.89236 162.396 7.63486 162.547 8.45986C162.712 9.32611 162.753 10.2199 162.78 11.0586C162.78 11.4436 162.78 11.8699 162.78 12.2824C162.78 12.8049 162.78 13.2861 162.78 13.7811V42.5186C162.78 43.0136 162.78 43.5086 162.78 44.0036C162.78 44.4574 162.78 44.8561 162.78 45.2824C162.753 46.0936 162.698 46.9874 162.547 47.8261C162.41 48.6649 162.163 49.4211 161.807 50.1224C161.437 50.8374 160.971 51.4836 160.409 52.0336C159.847 52.6111 159.203 53.0786 158.49 53.4361C157.778 53.7936 157.051 54.0411 156.202 54.1924C155.324 54.3574 154.42 54.3986 153.639 54.4124C153.241 54.4124 152.816 54.4261 152.405 54.4261H150.925H11.5537L11.5674 54.4399Z" fill="black"/>
<path d="M33.9485 28.5491C33.9074 24.7679 37.0323 22.9254 37.183 22.8429C35.415 20.2579 32.6739 19.9004 31.7145 19.8729C29.412 19.6254 27.178 21.2479 26.013 21.2479C24.8481 21.2479 23.0115 19.8866 21.0654 19.9279C18.5573 19.9691 16.2136 21.4266 14.939 23.6816C12.2938 28.2879 14.2674 35.0529 16.8029 38.7791C18.0776 40.6079 19.5578 42.6429 21.5039 42.5604C23.409 42.4779 24.1217 41.3504 26.4105 41.3504C28.6993 41.3504 29.3435 42.5604 31.3308 42.5191C33.3729 42.4916 34.6612 40.6904 35.881 38.8479C37.3475 36.7579 37.9368 34.6954 37.9642 34.5991C37.9231 34.5854 34.0033 33.0866 33.9622 28.5491H33.9485Z" fill="white"/>
<path d="M30.2069 17.4252C31.2348 16.1465 31.9337 14.4002 31.7282 12.6265C30.248 12.6952 28.3977 13.6577 27.3287 14.909C26.383 16.009 25.547 17.824 25.7663 19.529C27.4246 19.6527 29.1378 18.6902 30.2069 17.4252Z" fill="white"/>
<path d="M57.9742 37.9536H51.4915L49.9291 42.5736H47.188L53.3281 25.4961H56.1788L62.3189 42.5736H59.5229L57.9605 37.9536H57.9742ZM52.1631 35.8223H57.3026L54.7671 28.3286H54.6986L52.1631 35.8223Z" fill="white"/>
<path d="M75.5995 36.3452C75.5995 40.2089 73.53 42.6977 70.4188 42.6977C68.6508 42.6977 67.2528 41.9002 66.5127 40.5252H66.4579V46.6852H63.9087V30.1164H66.3757V32.1927H66.4168C67.1295 30.8589 68.6371 29.9927 70.364 29.9927C73.5162 29.9927 75.5858 32.4952 75.5858 36.3452H75.5995ZM72.9817 36.3452C72.9817 33.8289 71.6797 32.1652 69.7061 32.1652C67.7325 32.1652 66.4442 33.8564 66.4442 36.3452C66.4442 38.8339 67.7599 40.5389 69.7061 40.5389C71.6523 40.5389 72.9817 38.8889 72.9817 36.3452Z" fill="white"/>
<path d="M89.2504 36.3452C89.2504 40.2089 87.1808 42.6977 84.0697 42.6977C82.3017 42.6977 80.9037 41.9002 80.1636 40.5252H80.1088V46.6852H77.5596V30.1164H80.0266V32.1927H80.0677C80.7804 30.8589 82.288 29.9927 84.0149 29.9927C87.1671 29.9927 89.2367 32.4952 89.2367 36.3452H89.2504ZM86.6326 36.3452C86.6326 33.8289 85.3306 32.1652 83.357 32.1652C81.3834 32.1652 80.0951 33.8564 80.0951 36.3452C80.0951 38.8339 81.4108 40.5389 83.357 40.5389C85.3032 40.5389 86.6326 38.8889 86.6326 36.3452Z" fill="white"/>
<path d="M98.2823 37.8163C98.4741 39.5075 100.105 40.6213 102.353 40.6213C104.601 40.6213 106.04 39.5075 106.04 37.9813C106.04 36.6613 105.108 35.8638 102.901 35.3138L100.694 34.7775C97.5696 34.0213 96.1168 32.55 96.1168 30.1713C96.1168 27.2288 98.6797 25.2075 102.312 25.2075C105.944 25.2075 108.37 27.2288 108.452 30.1713H105.875C105.724 28.4663 104.313 27.435 102.271 27.435C100.228 27.435 98.8168 28.48 98.8168 29.9925C98.8168 31.2025 99.7076 31.9038 101.901 32.4538L103.778 32.9213C107.273 33.7463 108.726 35.1625 108.726 37.6513C108.726 40.8413 106.19 42.8488 102.161 42.8488C98.3919 42.8488 95.8427 40.8963 95.6782 37.8025H98.2823V37.8163Z" fill="white"/>
<path d="M114.235 27.1738V30.1163H116.593V32.1376H114.235V38.9988C114.235 40.0713 114.701 40.5663 115.743 40.5663C116.003 40.5663 116.415 40.5251 116.579 40.5113V42.5188C116.291 42.5876 115.729 42.6426 115.167 42.6426C112.659 42.6426 111.672 41.6938 111.672 39.2876V32.1513H109.863V30.1301H111.672V27.1876H114.235V27.1738Z" fill="white"/>
<path d="M117.95 36.3448C117.95 32.4261 120.252 29.9648 123.829 29.9648C127.407 29.9648 129.709 32.4261 129.709 36.3448C129.709 40.2636 127.434 42.7248 123.829 42.7248C120.225 42.7248 117.95 40.2773 117.95 36.3448ZM127.132 36.3448C127.132 33.6636 125.899 32.0686 123.843 32.0686C121.787 32.0686 120.554 33.6636 120.554 36.3448C120.554 39.0261 121.774 40.6211 123.843 40.6211C125.913 40.6211 127.132 39.0536 127.132 36.3448Z" fill="white"/>
<path d="M131.833 30.1165H134.259V32.234H134.314C134.697 30.8315 135.835 29.979 137.301 29.979C137.672 29.979 137.973 30.034 138.179 30.0753V32.4678C137.973 32.3853 137.534 32.3165 137.041 32.3165C135.396 32.3165 134.382 33.4303 134.382 35.1765V42.5603H131.833V30.1165Z" fill="white"/>
<path d="M149.911 38.9161C149.568 41.1711 147.375 42.7248 144.566 42.7248C140.961 42.7248 138.713 40.3048 138.713 36.3998C138.713 32.4948 140.961 29.9648 144.456 29.9648C147.951 29.9648 150.048 32.3298 150.048 36.1111V36.9911H141.29V37.1423C141.29 39.2736 142.619 40.6623 144.634 40.6623C146.046 40.6623 147.156 39.9886 147.499 38.9161H149.911ZM141.304 35.2036H147.512C147.457 33.2923 146.238 32.0411 144.47 32.0411C142.702 32.0411 141.441 33.3198 141.304 35.2036Z" fill="white"/>
<path d="M51.8481 12.6397C54.274 12.6397 55.6993 14.1385 55.6993 16.7097C55.6993 19.281 54.2877 20.8347 51.8481 20.8347H48.8877V12.626H51.8481V12.6397ZM50.1623 19.6797H51.6973C53.4105 19.6797 54.3973 18.6072 54.3973 16.7235C54.3973 14.8397 53.3968 13.7947 51.6973 13.7947H50.1623V19.6797Z" fill="white"/>
<path d="M57.1245 17.7414C57.1245 15.7477 58.2347 14.5239 60.0301 14.5239C61.8255 14.5239 62.9356 15.7339 62.9356 17.7414C62.9356 19.7489 61.8255 20.9589 60.0301 20.9589C58.2347 20.9589 57.1245 19.7489 57.1245 17.7414ZM61.6884 17.7414C61.6884 16.3939 61.0854 15.6102 60.0301 15.6102C58.9748 15.6102 58.3717 16.3939 58.3717 17.7414C58.3717 19.0889 58.961 19.8727 60.0301 19.8727C61.0991 19.8727 61.6884 19.0889 61.6884 17.7414Z" fill="white"/>
<path d="M70.6794 20.8486H69.4185L68.1439 16.2836H68.048L66.7733 20.8486H65.5261L63.8267 14.6611H65.0602L66.1703 19.3911H66.2662L67.5408 14.6611H68.7058L69.9804 19.3911H70.0764L71.1728 14.6611H72.3926L70.6931 20.8486H70.6794Z" fill="white"/>
<path d="M73.8042 14.6476H74.9829V15.6376H75.0788C75.3803 14.9501 75.9971 14.5376 76.9153 14.5376C78.2859 14.5376 79.0534 15.3626 79.0534 16.8338V20.8488H77.8336V17.1501C77.8336 16.1601 77.4087 15.6651 76.5042 15.6651C75.5996 15.6651 75.024 16.2701 75.024 17.2326V20.8488H73.8042V14.6613V14.6476Z" fill="white"/>
<path d="M80.9858 12.2412H82.2056V20.8487H80.9858V12.2412Z" fill="white"/>
<path d="M83.9053 17.7414C83.9053 15.7477 85.0154 14.5239 86.8108 14.5239C88.6063 14.5239 89.7164 15.7339 89.7164 17.7414C89.7164 19.7489 88.6063 20.9589 86.8108 20.9589C85.0154 20.9589 83.9053 19.7489 83.9053 17.7414ZM88.4692 17.7414C88.4692 16.3939 87.8662 15.6102 86.8108 15.6102C85.7555 15.6102 85.1525 16.3939 85.1525 17.7414C85.1525 19.0889 85.7418 19.8727 86.8108 19.8727C87.8799 19.8727 88.4692 19.0889 88.4692 17.7414Z" fill="white"/>
<path d="M91.0049 19.0888C91.0049 17.9751 91.8272 17.3288 93.2937 17.2463L94.9658 17.1501V16.6138C94.9658 15.9538 94.5409 15.5963 93.7049 15.5963C93.0196 15.5963 92.5536 15.8438 92.4165 16.2838H91.2379C91.3612 15.2251 92.3617 14.5376 93.7597 14.5376C95.3084 14.5376 96.1856 15.3076 96.1856 16.6138V20.8488H95.0069V19.9826H94.9109C94.5409 20.6013 93.8693 20.9588 93.0607 20.9588C91.8683 20.9588 91.0049 20.2438 91.0049 19.1026V19.0888ZM94.9658 18.5663V18.0438L93.4582 18.1401C92.6084 18.1951 92.2247 18.4838 92.2247 19.0338C92.2247 19.5838 92.7044 19.9138 93.3622 19.9138C94.2805 19.9138 94.9658 19.3226 94.9658 18.5663Z" fill="white"/>
<path d="M97.7891 17.7412C97.7891 15.7887 98.7896 14.5512 100.352 14.5512C101.202 14.5512 101.914 14.95 102.243 15.6375H102.339V12.2412H103.559V20.8487H102.394V19.8725H102.298C101.928 20.5462 101.215 20.9587 100.366 20.9587C98.7896 20.9587 97.8028 19.7212 97.8028 17.755L97.7891 17.7412ZM99.05 17.7412C99.05 19.0612 99.6667 19.845 100.695 19.845C101.723 19.845 102.353 19.0475 102.353 17.7412C102.353 16.435 101.709 15.6375 100.695 15.6375C99.6804 15.6375 99.05 16.435 99.05 17.7412Z" fill="white"/>
<path d="M108.589 17.7414C108.589 15.7477 109.699 14.5239 111.494 14.5239C113.29 14.5239 114.4 15.7339 114.4 17.7414C114.4 19.7489 113.29 20.9589 111.494 20.9589C109.699 20.9589 108.589 19.7489 108.589 17.7414ZM113.153 17.7414C113.153 16.3939 112.55 15.6102 111.494 15.6102C110.439 15.6102 109.836 16.3939 109.836 17.7414C109.836 19.0889 110.425 19.8727 111.494 19.8727C112.563 19.8727 113.153 19.0889 113.153 17.7414Z" fill="white"/>
<path d="M116.044 14.6476H117.223V15.6376H117.319C117.621 14.9501 118.237 14.5376 119.156 14.5376C120.526 14.5376 121.294 15.3626 121.294 16.8338V20.8488H120.074V17.1501C120.074 16.1601 119.649 15.6651 118.744 15.6651C117.84 15.6651 117.264 16.2701 117.264 17.2326V20.8488H116.044V14.6613V14.6476Z" fill="white"/>
<path d="M128.174 13.1074V14.6749H129.517V15.7062H128.174V18.8962C128.174 19.5424 128.434 19.8312 129.051 19.8312C129.243 19.8312 129.339 19.8312 129.517 19.8037V20.8212C129.325 20.8487 129.092 20.8899 128.859 20.8899C127.502 20.8899 126.968 20.4087 126.968 19.2124V15.7199H125.995V14.6887H126.968V13.1212H128.188L128.174 13.1074Z" fill="white"/>
<path d="M131.162 12.2412H132.368V15.6512H132.464C132.765 14.9637 133.409 14.5375 134.341 14.5375C135.657 14.5375 136.466 15.3762 136.466 16.8475V20.8487H135.246V17.15C135.246 16.16 134.794 15.665 133.93 15.665C132.93 15.665 132.381 16.2975 132.381 17.2325V20.8487H131.162V12.2412Z" fill="white"/>
<path d="M143.579 19.1713C143.305 20.2851 142.318 20.9588 140.906 20.9588C139.138 20.9588 138.056 19.7488 138.056 17.7688C138.056 15.7888 139.166 14.5376 140.906 14.5376C142.647 14.5376 143.661 15.7201 143.661 17.6588V18.0851H139.303V18.1538C139.344 19.2401 139.974 19.9276 140.948 19.9276C141.688 19.9276 142.195 19.6663 142.414 19.1713H143.593H143.579ZM139.289 17.1776H142.4C142.373 16.2013 141.784 15.5688 140.879 15.5688C139.974 15.5688 139.344 16.2013 139.275 17.1776H139.289Z" fill="white"/>
</g>
<defs>
<clipPath id="clip0_612_314">
<rect width="164" height="55" fill="white" transform="translate(0 0.63623)"/>
</clipPath>
</defs>
</svg>
