<svg width="169" height="295" viewBox="0 0 169 295" fill="none" xmlns="http://www.w3.org/2000/svg">
<g opacity="0.2">
<path d="M98.1859 15.9742C96.7686 16.0077 95.4979 16.6869 94.6295 17.8032C94.1665 18.3984 93.8126 19.0836 93.5791 19.7999C93.385 20.3953 93.1526 21.1227 93.4493 21.7168C93.7085 22.2364 94.1486 22.7284 94.5472 23.1495C95.1104 23.7442 95.986 23.5837 96.6594 23.261C98.1053 22.5685 99.4389 21.2626 99.962 19.7356C100.224 18.9706 100.304 18.1001 99.969 17.3433C99.6554 16.6365 98.9864 16.0078 98.1859 15.9742ZM99.3954 20.1672C98.9485 20.8674 98.1165 21.4833 97.4088 21.9077C96.823 22.2591 95.9244 22.6225 95.2931 22.1899C94.8382 21.8782 94.3883 21.2446 94.1062 20.7711C93.7839 20.2304 93.9373 19.6522 94.2333 19.1191C94.9078 17.9038 96.3154 17.1789 97.6775 17.1467C98.9738 17.2014 100.143 18.9961 99.3954 20.1672Z" fill="#1D7C1B"/>
<path d="M157.805 21.0622C158.083 16.8503 157.104 12.5748 153.82 9.67332C149.284 5.66584 141.786 5.74611 137.218 9.6434C136.885 9.92763 136.57 10.2438 136.263 10.5734C133.39 9.20977 130.547 7.78381 127.76 6.21994C127.321 5.97358 126.88 5.72532 126.438 5.47571C126.404 1.36864 126.097 -2.70512 124.691 -6.64871C123.016 -11.3491 119.516 -15.1413 115.896 -18.4644C113.803 -20.3852 110.972 -22.6939 107.94 -22.4792C104.503 -22.2361 102.91 -18.6616 102.185 -15.7474C101.321 -12.2779 101.965 -9.10401 103.634 -5.99284C107.994 2.13603 116.06 7.32536 123.851 11.8237C123.835 14.9244 123.698 18.0316 123.834 21.122C124.064 26.3427 124.7 32.8978 128.981 36.5007C133.235 40.08 141.107 40.6182 146.189 38.7412C151.056 36.9432 154.44 32.7506 156.256 28.0201C159.523 30.1425 162.553 32.6811 165.065 35.6578C166.371 37.2066 167.552 38.8877 168.431 40.7183C168.924 41.7466 169.326 42.8182 169.549 43.9393C169.625 44.3177 169.622 44.7969 169.728 45.1732C169.716 45.3001 169.709 45.4024 169.703 45.4938C169.586 45.6576 169.429 45.8942 169.222 46.2221C167.565 48.1102 165.073 49.6257 162.491 50.2075C163.586 46.6116 163.77 42.4822 160.912 40.0788C159.201 38.6401 156.557 38.2888 154.577 39.4212C152.324 40.7104 151.296 43.6618 150.765 46.0352C149.648 51.0316 151.838 56.285 157.353 57.152C162.758 58.0012 168.398 53.7437 170.609 49.053C175.197 39.3227 169.801 30.5359 162.3 24.3156C160.868 23.1292 159.363 22.0538 157.805 21.0622ZM143.476 13.4435C147.597 13.3793 151.518 15.2349 153.641 18.652C151.512 17.5229 149.325 16.494 147.123 15.509C145.615 14.8339 144.108 14.1638 142.604 13.4892C142.894 13.4647 143.185 13.4479 143.476 13.4435ZM109.489 -7.205C108.35 -8.5643 107.309 -10.02 106.413 -11.5504C105.894 -12.4354 105.411 -13.3515 105.034 -14.3065C104.931 -14.5692 104.863 -14.8813 104.783 -15.1826C105.492 -15.3465 106.186 -15.7987 107.066 -15.7049C107.972 -15.6083 108.871 -15.2491 109.68 -14.8464C111.695 -13.8439 113.381 -12.3228 114.963 -10.7487C119.21 -6.52113 122.272 -2.13055 123.327 3.68219C118.24 0.679847 113.248 -2.71692 109.489 -7.205ZM147.933 31.9444C143.474 33.7408 137.073 33.2228 132.792 31.0173C128.089 28.5948 126.943 22.8544 126.556 18.0298C126.429 16.4438 126.387 14.8481 126.382 13.2477C128.504 14.3966 130.671 15.4585 132.859 16.481C131.806 19.5928 131.539 23.0054 132.35 25.8209C133.863 31.0779 140.279 33.6225 144.81 30.3454C145.928 29.5373 146.368 27.6512 146.621 26.3771C146.674 26.1098 147.018 23.0897 146.167 23.7047C142.702 26.2111 137.36 25.0881 135.353 21.1962C134.576 19.6894 134.418 18.5235 134.968 17.454C141.512 20.4327 148.171 23.1795 154.337 26.8382C154.205 27.0574 154.068 27.2758 153.902 27.4918C152.372 29.4865 150.257 31.0079 147.933 31.9444Z" fill="#1D7C1B"/>
<path d="M110.628 51.6774C109.083 51.697 107.233 52.6902 105.772 53.1642C103.982 53.7451 102.192 54.3256 100.402 54.9064C96.8214 56.0677 93.241 57.2294 89.6607 58.3907C88.8174 58.6643 87.2776 61.7776 87.8545 62.557C90.359 65.9415 92.8634 69.3256 95.3679 72.7102C96.9775 74.8851 98.6699 77.0291 100.289 79.2173C99.2851 79.4097 98.3275 79.8237 97.4976 80.5094C95.6558 82.031 94.2823 85.0051 94.5864 87.4107C94.8794 89.7268 96.9035 91.6142 99.1573 92.0203C101.349 92.4152 103.163 91.3894 104.402 89.6295C105.737 87.7342 106.688 85.2205 106.533 82.8738C106.339 79.929 104.093 77.6085 102.422 75.3502C100.909 73.3058 99.3962 71.2617 97.8835 69.2173C99.9769 68.6665 102.041 67.9339 104.083 67.3221C104.987 67.0515 114.624 63.98 114.719 64.238C114.825 64.528 115.056 64.4098 115.3 64.159C116.675 66.1779 118.051 68.1968 119.427 70.2158C117.12 72.2328 115.295 74.8808 114.619 77.8332C113.793 81.442 116.621 84.5794 120.303 84.3213C123.839 84.0735 125.79 80.4917 126.354 77.336C127.045 73.479 125.035 70.2839 122.513 67.6064C120.518 64.6798 118.524 61.7535 116.53 58.8272C115.472 57.2737 114.413 55.7201 113.354 54.1669C112.68 53.177 112.006 51.6599 110.628 51.6774ZM96.5829 84.4287C96.586 84.4261 96.5892 84.4241 96.5923 84.4216C96.5851 84.4307 96.5786 84.4373 96.5713 84.4467C96.145 84.7458 96.1492 84.7397 96.5829 84.4287ZM103.684 87.3667C102.281 88.127 100.435 87.7679 99.1265 86.9804C98.3353 86.5041 97.6888 85.8652 97.2472 85.0468C97.142 84.876 97.0586 84.6956 96.9967 84.5052C96.9782 84.3263 96.9339 84.232 96.8643 84.2206C96.9546 84.1645 97.0484 84.1144 97.1471 84.0721C98.8352 83.1846 100.762 83.2773 102.527 83.8614C102.743 83.933 102.996 83.7677 103.249 83.4673C103.993 84.644 105.067 86.6178 103.684 87.3667ZM123.906 76.8819C124.104 77.4725 124.122 78.0797 124.287 78.6663C124.172 79.2044 124.242 79.321 124.496 79.0167C124.794 78.7559 124.752 78.8006 124.37 79.1514C123.59 79.6089 122.909 79.9268 121.984 79.9938C120.171 80.1252 118.289 79.2867 117.27 77.761C117.049 77.4298 116.748 76.9801 116.7 76.5679C116.63 75.9613 116.956 75.6562 117.449 75.102C118.466 73.9596 119.699 73.0716 121.033 72.3386C122.253 73.6751 123.325 75.1501 123.906 76.8819Z" fill="#1D7C1B"/>
<path d="M144.101 61.9083C143.15 62.6786 142.194 63.4401 141.232 64.1953C140.681 63.2415 140.114 62.2971 139.533 61.3617C140.076 60.949 140.619 60.5355 141.165 60.1253C141.447 59.9132 141.618 59.4328 141.697 59.1026C141.733 58.9512 141.815 58.4898 141.532 58.7024C140.702 59.3268 139.874 59.9542 139.048 60.5849C138.538 59.7789 138.016 58.9794 137.483 58.1873C137.335 57.9684 136.498 59.2853 136.727 59.6267C137.133 60.2299 137.531 60.8388 137.924 61.4499C136.805 62.3101 135.69 63.175 134.581 64.047C134.151 63.1047 133.71 62.1674 133.256 61.236C133.137 60.9922 132.803 61.5938 132.766 61.6635C132.647 61.8835 132.37 62.4087 132.5 62.6754C132.855 63.4026 133.201 64.1342 133.541 64.8685C132.973 65.3172 132.405 65.7659 131.84 66.2177C131.56 66.4417 131.389 66.9027 131.308 67.2406C131.274 67.3833 131.194 67.8645 131.473 67.6409C132.287 66.9903 133.103 66.3431 133.922 65.6987C134.378 66.7049 134.821 67.7172 135.25 68.7355C134.815 69.0539 134.38 69.3708 133.944 69.6864C133.661 69.8912 133.489 70.3837 133.412 70.7093C133.375 70.8663 133.292 71.3153 133.577 71.1095C134.26 70.6158 134.939 70.1177 135.617 69.6167C136.001 70.551 136.374 71.4904 136.735 72.4345C136.7 72.5808 136.698 72.7056 136.751 72.7804C136.836 72.902 136.921 73.0239 137.007 73.1455C137.19 73.4069 137.884 72.0303 137.762 71.7061C137.403 70.7492 137.031 69.7974 136.648 68.8505C137.972 67.8593 139.287 66.854 140.59 65.8345C141.242 66.9705 141.874 68.1184 142.483 69.2795C142.584 69.472 143.441 68.227 143.238 67.8401C142.734 66.8775 142.212 65.9244 141.677 64.979C142.366 64.4339 143.052 63.8857 143.734 63.3326C144.014 63.106 144.185 62.6491 144.266 62.3098C144.299 62.168 144.379 61.6825 144.101 61.9083ZM136.286 67.969C135.859 66.9355 135.416 65.9077 134.96 64.8863C136.106 63.99 137.256 63.0986 138.411 62.2143C139.001 63.1505 139.575 64.0961 140.134 65.0507C138.862 66.037 137.579 67.0097 136.286 67.969Z" fill="#1D7C1B"/>
<path d="M164.991 123.756C161.403 123.564 157.816 123.372 154.228 123.18C153.871 123.161 154.574 125.106 155.111 125.134C157.465 125.26 159.819 125.387 162.173 125.513C163.581 125.588 165.005 125.621 166.422 125.693C165.979 127.764 166.961 130.267 168.897 131.196C169.965 131.708 171.292 131.577 172.049 130.604C172.819 129.612 172.726 128.328 172.276 127.226C171.803 126.069 170.998 124.954 169.859 124.383C168.431 123.666 166.546 123.839 164.991 123.756Z" fill="#1D7C1B"/>
<path d="M163.299 97.3523C161.732 96.8113 160.165 96.2706 158.598 95.7296C158.483 95.6897 158.466 95.7686 158.432 95.8666C157.698 98.0087 157.158 100.211 156.845 102.455C156.718 103.372 156.584 104.384 157.091 105.228C157.555 106 158.852 106.338 159.642 106.651C160.795 107.11 162.023 107.497 163.188 107.997C162.955 109.114 163.333 110.454 163.942 111.306C164.354 111.881 165.132 112.43 165.877 112.19C166.546 111.974 166.746 111.202 166.739 110.579C166.717 108.544 165.319 107.412 163.631 106.586C162.645 106.103 161.61 105.728 160.582 105.346C160.437 105.292 160.292 105.236 160.146 105.182C160.447 102.898 160.748 100.615 161.049 98.3316C161.052 98.3053 161.053 98.2785 161.055 98.2523C161.422 98.3788 161.789 98.5052 162.155 98.6319C162.677 98.8124 163.199 98.9927 163.722 99.1729C163.891 99.2311 164.596 99.3767 164.908 99.538C165.088 100.612 165.263 101.7 165.968 102.579C166.639 103.415 168.164 103.819 168.687 102.587C169.089 101.642 168.577 100.234 167.905 99.5307C166.939 98.5197 165.388 97.9652 164.088 97.5574C164.068 97.5511 164.051 97.5541 164.035 97.5634C163.776 97.4863 163.513 97.4259 163.299 97.3523ZM165.506 109.284C165.694 109.425 165.893 109.575 166.032 109.767C166.032 109.768 166.033 109.769 166.034 109.77C166.001 109.863 165.956 109.951 165.899 110.033C165.591 110.465 165.05 110.506 164.586 110.319C163.64 109.939 163.623 109.408 164.213 108.663C164.244 108.623 164.265 108.573 164.278 108.516C164.705 108.744 165.118 108.995 165.506 109.284ZM166.537 100.197C166.875 100.368 167.214 100.549 167.53 100.757C167.66 100.843 167.796 100.999 167.93 101.136C167.867 101.231 167.815 101.33 167.638 101.422C167.405 101.542 167.12 101.601 166.859 101.573C165.93 101.472 165.577 100.621 165.463 99.8261C165.458 99.7882 165.453 99.7487 165.448 99.7099C165.817 99.8558 166.181 100.017 166.537 100.197ZM159 97.5425C159.284 97.6404 159.568 97.7386 159.852 97.8363C159.602 98.1554 159.203 98.3054 158.867 98.5265C158.788 98.5787 158.711 98.6342 158.635 98.6901C158.751 98.306 158.872 97.923 159 97.5425ZM158.243 101.084C158.406 100.984 158.589 100.899 158.716 100.789C158.977 100.559 159.259 100.354 159.559 100.178C159.716 100.086 159.873 99.9997 160.019 99.9014C160.002 100.031 159.973 101.181 159.845 101.225C159.453 101.36 159.238 101.666 158.899 101.883C158.693 102.014 158.485 102.143 158.275 102.268C158.193 102.317 157.703 102.529 157.689 102.607C157.755 102.246 157.759 101.733 157.914 101.4C157.976 101.266 158.102 101.169 158.243 101.084ZM159.415 104.9C159.311 104.859 159.207 104.819 159.104 104.777C158.828 104.665 158.536 104.498 158.243 104.35C158.683 104.1 159.114 103.836 159.537 103.559C159.498 103.859 159.458 104.159 159.419 104.459C159.4 104.602 159.401 104.75 159.415 104.9ZM160.267 98.0242C160.259 98.0066 160.25 97.9885 160.24 97.9708C160.251 97.9745 160.262 97.9782 160.273 97.9818C160.271 97.9959 160.269 98.0101 160.267 98.0242Z" fill="#1D7C1B"/>
<path d="M140.34 99.3795C141.265 99.7477 141.717 100.797 141.348 101.722C140.98 102.648 139.931 103.099 139.006 102.73C138.08 102.362 137.629 101.313 137.997 100.388C138.366 99.4627 139.414 99.0111 140.34 99.3795Z" fill="#1D7C1B"/>
<path d="M136.317 94.1519C137.035 94.4379 137.386 95.2518 137.1 95.97C136.814 96.6883 136 97.0387 135.282 96.7527C134.563 96.4667 134.213 95.6528 134.499 94.9346C134.785 94.2164 135.599 93.8659 136.317 94.1519Z" fill="#1D7C1B"/>
<path d="M129.447 99.257C129.892 99.4345 130.11 99.9396 129.932 100.386C129.755 100.831 129.25 101.049 128.804 100.871C128.358 100.694 128.14 100.189 128.318 99.7427C128.496 99.2971 129.001 99.0793 129.447 99.257Z" fill="#1D7C1B"/>
</g>
</svg>
