<svg width="169" height="156" viewBox="0 0 169 156" fill="none" xmlns="http://www.w3.org/2000/svg">
<g opacity="0.4">
<path opacity="0.5" fill-rule="evenodd" clip-rule="evenodd" d="M81.2569 141.001C81.8493 145.46 64.3662 151.456 42.2162 154.402C20.0583 157.34 1.62262 156.115 1.03024 151.656C0.437871 147.197 17.9209 141.194 40.0709 138.256C62.2209 135.318 80.6645 136.543 81.2569 141.001Z" fill="#D1831F"/>
<path fill-rule="evenodd" clip-rule="evenodd" d="M183.323 88.3744C181.225 89.295 180.129 90.4718 178.64 92.0808C178.56 92.0728 178.303 92.0568 177.679 91.9847C175.87 91.7206 173.629 91.3603 171.811 91.7686C168.641 92.473 166.304 95.587 166.48 98.8771C166.52 99.5415 167.024 101.663 168.609 102.824L167.513 104.008C167.016 104.521 166.464 104.873 165.904 105.057C165.463 105.201 165.031 105.233 164.607 105.153C164.335 105.089 164.062 104.985 163.806 104.825C164.167 104.825 164.543 104.713 164.871 104.497C165.167 104.288 165.399 103.984 165.535 103.64C165.976 102.551 165.199 101.399 164.054 101.287C162.518 101.134 161.125 103.16 163.07 105.025C163.486 105.425 163.974 105.657 164.495 105.777C165.015 105.873 165.567 105.833 166.104 105.649C166.76 105.441 167.409 105.025 167.961 104.449L169.13 103.176C170.891 104.168 172.22 103.944 173.212 103.584C174.221 103.192 175.854 101.823 176.134 100.158C176.358 98.725 175.966 97.6203 175.125 96.7477L177.551 94.1701C180.057 94.5383 182.082 94.6184 185.14 92.409C189.118 89.5112 188.974 85.8689 183.323 88.3744ZM176.807 94.042L174.677 96.3075C173.556 95.4349 170.731 95.2108 169.49 97.0599C168.233 98.9091 169.13 100.326 169.13 100.326L169.322 100.254C169.322 100.254 169.274 100.174 169.282 99.3093C169.266 98.4688 169.77 97.9245 170.459 97.4922C171.019 97.132 172.34 96.9799 173.292 97.7964L168.922 102.487C166.96 100.958 166.208 97.228 168.169 95.2988C169.73 93.7538 171.619 93.5377 173.733 93.6738C174.885 93.7538 175.878 93.9059 176.807 94.042ZM169.458 102.816L173.717 98.2687C173.733 98.3007 173.757 98.3247 173.781 98.3648C174.693 99.7736 174.181 101.887 172.18 102.84C171.171 103.304 170.25 103.224 169.458 102.816ZM184.724 89.4311C186.365 89.4952 185.996 90.9601 184.555 91.8246C183.139 92.6732 180.833 92.7292 179.304 92.2809C180.697 90.776 182.554 89.3751 184.724 89.4311Z" fill="#D1831F"/>
<path fill-rule="evenodd" clip-rule="evenodd" d="M154.699 108.1C153.13 106.876 151.793 106.531 149.952 106.043C149.928 105.971 149.824 105.787 149.632 105.267C149.08 103.778 148.439 101.921 147.383 100.704C145.549 98.5665 142.219 98.0541 139.778 99.5351C139.289 99.8313 137.889 101.096 137.64 102.777L136.288 102.433C135.695 102.265 135.199 101.985 134.823 101.632C134.542 101.352 134.326 101.032 134.222 100.68C134.158 100.448 134.118 100.191 134.142 99.9353C134.294 100.207 134.534 100.448 134.831 100.608C135.119 100.76 135.439 100.8 135.759 100.776C136.768 100.656 137.336 99.5831 136.944 98.6705C136.424 97.4377 134.31 97.1976 133.694 99.447C133.558 99.9353 133.574 100.408 133.702 100.84C133.846 101.288 134.102 101.688 134.454 102.017C134.887 102.433 135.463 102.761 136.135 102.937L137.6 103.321C137.56 105.059 138.281 105.987 138.961 106.596C139.666 107.204 141.387 107.908 142.772 107.42C143.956 107.012 144.645 106.259 144.957 105.275L147.911 106.067C148.671 108.116 149.432 109.701 152.386 111.134C156.204 113.008 158.926 111.391 154.699 108.1ZM147.687 105.451L145.085 104.762C145.301 103.538 144.309 101.288 142.403 101.096C140.466 100.904 139.762 102.169 139.762 102.169L139.89 102.297C139.89 102.297 139.938 102.225 140.594 101.873C141.235 101.512 141.843 101.688 142.459 102.025C142.972 102.313 143.628 103.249 143.396 104.322L138.025 102.897C138.393 100.776 140.922 98.6705 143.196 99.383C145.013 99.9353 145.95 101.304 146.702 102.969C147.126 103.874 147.415 104.69 147.687 105.451ZM137.985 103.426L143.204 104.818C143.18 104.842 143.172 104.89 143.156 104.914C142.451 106.195 140.634 106.668 139.081 105.515C138.313 104.946 137.993 104.202 137.985 103.426ZM154.451 109.613C155.083 110.886 153.811 111.214 152.57 110.462C151.345 109.709 150.352 107.98 150.08 106.628C151.785 107.092 153.618 107.924 154.451 109.613Z" fill="#D1831F"/>
<path fill-rule="evenodd" clip-rule="evenodd" d="M7.47593 126.704C9.50921 128.289 11.2383 128.745 13.6078 129.369C13.6398 129.457 13.7679 129.706 14.0241 130.37C14.7445 132.283 15.569 134.685 16.9219 136.27C19.2914 139.015 23.5901 139.688 26.7521 137.783C27.3845 137.39 29.2016 135.757 29.5218 133.58L31.2669 134.044C32.0354 134.26 32.6678 134.605 33.1561 135.085C33.5244 135.429 33.7965 135.853 33.9326 136.318C34.0287 136.606 34.0687 136.934 34.0367 137.262C33.8526 136.902 33.5324 136.606 33.1481 136.398C32.7799 136.214 32.3636 136.142 31.9474 136.198C30.6506 136.342 29.9141 137.719 30.4184 138.903C31.0908 140.496 33.8286 140.785 34.6211 137.895C34.7892 137.278 34.7652 136.662 34.597 136.102C34.4209 135.525 34.0927 135.005 33.6364 134.581C33.0761 134.036 32.3396 133.628 31.4671 133.388L29.5859 132.892C29.6339 130.65 28.7053 129.441 27.8248 128.657C26.9122 127.864 24.6948 126.976 22.9017 127.576C21.3647 128.105 20.4921 129.097 20.0759 130.378L16.2495 129.337C15.2728 126.688 14.2802 124.654 10.4858 122.797C5.5307 120.38 2.02449 122.453 7.47593 126.704ZM16.5296 130.13L19.8838 131.018C19.6036 132.587 20.8844 135.501 23.3579 135.741C25.8475 136.005 26.7761 134.364 26.7761 134.364L26.616 134.204C26.616 134.204 26.552 134.3 25.7034 134.749C24.8709 135.205 24.0784 134.981 23.2859 134.557C22.6215 134.172 21.789 132.972 22.0851 131.587L29.0095 133.428C28.5372 136.182 25.2632 138.895 22.3333 137.975C19.9798 137.238 18.7791 135.493 17.7864 133.348C17.2661 132.171 16.8819 131.122 16.5296 130.13ZM29.0656 132.739L22.3173 130.938C22.3413 130.914 22.3573 130.874 22.3813 130.834C23.2859 129.177 25.6474 128.569 27.6326 130.042C28.6333 130.778 29.0495 131.747 29.0656 132.739ZM7.79613 124.758C6.98762 123.109 8.62865 122.693 10.2457 123.654C11.8227 124.622 13.1035 126.848 13.4637 128.617C11.2463 128.032 8.8688 126.944 7.79613 124.758Z" fill="#D1831F"/>
<path fill-rule="evenodd" clip-rule="evenodd" d="M185.088 132.933L185.152 132.973L185.672 133.165C185.784 133.213 185.392 127.129 182.574 126.417C182.11 126.288 181.717 126.264 181.325 126.248C182.59 127.633 182.91 129.715 183.631 131.396C184.039 132.34 184.687 132.757 185.088 132.933ZM180.949 125.896C181.405 125.872 182.022 125.864 182.742 125.984C184.511 126.28 185.576 127.801 186.24 129.33C186.865 130.835 187.305 133.621 189.098 134.374L188.882 135.038L187.713 134.606L184.007 133.253L172.328 129.01C172.536 129.907 171.935 131.18 170.799 132.156C169.334 133.333 167.581 133.637 166.852 132.765C166.124 131.884 166.684 130.195 168.117 128.97C169.23 128.058 170.534 127.681 171.399 127.962C171.559 128.002 171.703 128.082 171.855 128.13C173.592 128.746 178.251 130.467 178.339 130.483C178.435 130.531 178.059 124.447 175.217 123.743C173.728 123.367 172.384 123.743 172.384 123.743L172.488 123.407C172.488 123.407 172.64 123.359 172.768 123.311C172.864 123.303 173.953 123.07 175.385 123.295C176.81 123.527 177.859 124.768 177.859 124.768C177.859 124.768 178.083 124.735 178.219 124.784C178.347 124.832 179.612 125 180.405 125.48C180.613 125.616 180.797 125.736 180.949 125.896ZM178.868 126.641C178.531 125.824 178.155 125.24 178.155 125.24C178.155 125.24 178.628 125.36 179.228 125.584C181.437 126.385 181.934 129.859 182.158 131.804C180.012 131.356 179.556 128.25 178.868 126.641Z" fill="#D1831F"/>
<path fill-rule="evenodd" clip-rule="evenodd" d="M39.4688 132.18H39.4367L39.2126 132.132C39.1726 132.124 39.7649 134.517 40.9417 134.605C41.1338 134.621 41.2939 134.597 41.454 134.581C40.8456 134.117 40.5734 133.309 40.1572 132.684C39.933 132.34 39.6449 132.22 39.4688 132.18ZM41.6381 134.693C41.454 134.741 41.2058 134.79 40.9177 134.798C40.1812 134.798 39.6449 134.269 39.2686 133.717C38.9164 133.156 38.5322 132.076 37.7637 131.9L37.8117 131.62L38.308 131.708L39.885 131.98L44.8481 132.836C44.7121 132.476 44.8561 131.932 45.2404 131.451C45.7367 130.883 46.4091 130.627 46.7694 130.931C47.1216 131.227 47.0255 131.948 46.5372 132.54C46.161 132.988 45.6647 133.229 45.3044 133.181C45.2404 133.172 45.1683 133.156 45.1123 133.148C44.3758 133.02 42.3906 132.676 42.3506 132.676C42.3105 132.668 42.8949 135.07 44.0797 135.15C44.696 135.182 45.2084 134.942 45.2084 134.942L45.1924 135.078C45.1924 135.078 45.1443 135.102 45.0883 135.142C45.0563 135.15 44.632 135.31 44.0396 135.334C43.4633 135.35 42.9509 134.934 42.9509 134.934C42.9509 134.934 42.8629 134.958 42.8069 134.95C42.7588 134.942 42.2385 134.966 41.8863 134.83C41.7902 134.782 41.7102 134.749 41.6381 134.693ZM42.4146 134.253C42.6067 134.541 42.7989 134.757 42.7989 134.757C42.7989 134.757 42.5987 134.741 42.3426 134.693C41.398 134.533 40.9577 133.18 40.7175 132.42C41.6061 132.444 42.0224 133.653 42.4146 134.253Z" fill="#D1831F"/>
<path fill-rule="evenodd" clip-rule="evenodd" d="M3.29026 132.771C3.69051 133.571 3.64248 134.396 3.2022 134.628C2.76193 134.86 2.05748 134.404 1.65723 133.619C1.289 132.875 1.28099 132.114 1.64122 131.818L4.98733 128.776L5.19546 129.025L2.20958 131.73C2.60182 131.85 3.01008 132.243 3.29026 132.771ZM1.80132 131.874C1.55316 131.994 1.67324 132.691 2.04147 133.427C2.4097 134.148 2.91402 134.644 3.15417 134.516C3.38632 134.404 3.27425 133.699 2.90602 132.987C2.52177 132.243 2.02546 131.746 1.80132 131.874Z" fill="#D1831F"/>
<path fill-rule="evenodd" clip-rule="evenodd" d="M1.70892 133.355L1.70092 133.371C1.68491 133.428 1.70892 133.54 1.79698 133.668C1.88503 133.836 2.01311 133.964 2.08516 133.956C2.1492 133.948 2.12518 133.804 2.02912 133.644C1.95708 133.5 1.85301 133.395 1.78097 133.363" fill="#D1831F"/>
<path fill-rule="evenodd" clip-rule="evenodd" d="M7.93925 140.024C8.63569 141.424 8.56364 142.873 7.78715 143.29C7.01066 143.69 5.78589 142.881 5.07344 141.505C4.42503 140.216 4.41703 138.887 5.04943 138.375L10.9091 133.035L11.2774 133.483L6.05806 138.214C6.72248 138.415 7.43493 139.095 7.93925 140.024ZM5.3216 138.463C4.88932 138.655 5.09746 139.879 5.75387 141.168C6.41028 142.449 7.28284 143.306 7.69109 143.082C8.10736 142.873 7.90723 141.657 7.25882 140.376C6.5944 139.103 5.71384 138.222 5.3216 138.463Z" fill="#D1831F"/>
<path fill-rule="evenodd" clip-rule="evenodd" d="M5.16569 141.048L5.14167 141.08C5.11766 141.176 5.16569 141.36 5.30177 141.592C5.46988 141.88 5.70203 142.105 5.8141 142.097C5.93417 142.08 5.88614 141.824 5.71804 141.544C5.58195 141.304 5.39784 141.096 5.28576 141.056" fill="#D1831F"/>
<path fill-rule="evenodd" clip-rule="evenodd" d="M91.8902 105.859C91.8982 103.618 92.9229 101.825 94.1797 101.801C95.4365 101.809 96.4851 103.618 96.4851 105.859C96.4611 107.901 95.6046 109.598 94.4678 109.854L83.5409 112.776L83.3408 111.991L93.091 109.374C92.3625 108.693 91.8982 107.364 91.8902 105.859ZM94.1797 109.574C94.8601 109.574 95.3884 107.901 95.4124 105.843C95.3964 103.778 94.8521 102.113 94.1957 102.129C93.5152 102.129 92.9789 103.786 92.9709 105.843C92.9709 107.893 93.5232 109.598 94.1797 109.574Z" fill="#D1831F"/>
<path fill-rule="evenodd" clip-rule="evenodd" d="M92.4071 104.818C92.3911 104.834 92.3751 104.842 92.3511 104.85C92.239 104.938 92.167 105.235 92.167 105.619C92.167 106.123 92.2951 106.555 92.4552 106.627C92.6073 106.7 92.7434 106.355 92.7354 105.843C92.7434 105.451 92.6633 105.083 92.5432 104.922" fill="#D1831F"/>
<path fill-rule="evenodd" clip-rule="evenodd" d="M162.236 62.6156C162.228 63.9204 162.589 64.881 162.629 64.9931C162.677 65.1051 162.765 65.2092 162.765 65.2092L163.061 65.2732C163.061 65.2732 162.525 64.1045 162.637 62.7036C162.893 60.0379 168.344 58.8132 168.336 58.9092L168.224 59.4055L166.919 66.1378C166.895 66.2579 166.855 66.3939 166.839 66.538C166.703 67.3706 167.24 68.4993 168.232 69.3798C169.537 70.5085 171.154 70.7727 171.843 69.9962C172.523 69.1957 172.019 67.6347 170.722 66.506C169.689 65.6175 168.44 65.2572 167.656 65.5454L169.329 56.8519L169.529 55.7312L168.905 55.6191C168.488 57.3642 166.047 58.1728 164.758 58.9492C163.469 59.7498 162.244 60.9505 162.236 62.6156Z" fill="#D1831F"/>
<path fill-rule="evenodd" clip-rule="evenodd" d="M167.435 58.1488C167.459 58.1569 167.475 58.1729 167.475 58.1729C167.587 58.1889 167.803 58.1008 168.011 57.9087C168.299 57.6685 168.491 57.3724 168.459 57.2443C168.419 57.1242 168.155 57.2203 167.867 57.4524C167.659 57.6445 167.467 57.8847 167.427 58.0128" fill="#D1831F"/>
<path fill-rule="evenodd" clip-rule="evenodd" d="M170.325 38.6885C169.06 38.9767 168.212 39.545 168.108 39.6091C168.012 39.6971 167.932 39.7852 167.932 39.7852L167.94 40.1054C167.94 40.1054 168.956 39.3049 170.349 39.1128C173.007 38.7525 175.449 43.7717 175.344 43.7797L174.832 43.8037L167.988 44.0519C167.852 44.0519 167.732 44.0519 167.58 44.0679C166.739 44.1319 165.77 44.8924 165.138 46.0611C164.329 47.5821 164.426 49.2231 165.338 49.7275C166.275 50.2078 167.684 49.3592 168.5 47.8543C169.133 46.6295 169.205 45.3407 168.732 44.6362L177.57 44.3L178.715 44.244L178.667 43.6036C176.881 43.5956 175.529 41.3942 174.488 40.3295C173.399 39.2488 171.95 38.3203 170.325 38.6885Z" fill="#D1831F"/>
<path fill-rule="evenodd" clip-rule="evenodd" d="M168.182 46.5805C168.15 46.5805 168.11 46.5725 168.078 46.5725C167.902 46.5645 167.662 46.7326 167.51 46.9888C167.309 47.317 167.301 47.6772 167.502 47.8053C167.694 47.9334 168.022 47.7733 168.23 47.4371C168.398 47.1889 168.422 46.8927 168.342 46.7246" fill="#D1831F"/>
<path fill-rule="evenodd" clip-rule="evenodd" d="M140.246 77.5767C142.151 78.2812 143.688 76.0878 143.536 74.3827C143.352 72.5656 141.639 70.8605 138.909 70.7804C135.347 70.5963 132.689 72.2053 131.096 73.1339C129.543 74.0945 128.807 74.9431 128.807 74.9431C131.793 71.5489 136.796 67.5784 141.983 69.8919C145.297 71.3328 145.529 75.8076 143.016 77.7689C141.743 78.7615 139.846 79.0577 138.581 77.937C138.076 77.4647 137.732 76.8483 137.62 76.3039C137.404 75.0631 138.477 73.9024 139.79 74.3907C140.582 74.7109 140.966 75.6315 140.662 76.456C140.518 76.7922 139.702 77.3046 140.246 77.5767Z" fill="#D1831F"/>
<path fill-rule="evenodd" clip-rule="evenodd" d="M146.12 70.5011C146.344 69.9248 146.056 69.3004 145.495 69.0682C144.919 68.8201 144.303 69.1002 144.07 69.6766C143.854 70.2129 144.126 70.8694 144.671 71.0695C145.255 71.3337 145.872 71.0455 146.12 70.5011Z" fill="#D1831F"/>
<path fill-rule="evenodd" clip-rule="evenodd" d="M142.752 68.4438C142.96 67.8835 142.696 67.2431 142.128 67.0109C141.591 66.7708 140.935 67.075 140.711 67.6113C140.495 68.1796 140.751 68.8281 141.335 69.0682C141.896 69.2763 142.536 68.9882 142.752 68.4438Z" fill="#D1831F"/>
<path fill-rule="evenodd" clip-rule="evenodd" d="M138.845 75.0318C138.805 75.0238 138.757 75.0158 138.717 75.0238C138.469 75.0158 138.164 75.2159 137.948 75.5602C137.676 76.0004 137.676 76.4647 137.94 76.6408C138.196 76.8009 138.629 76.5768 138.901 76.1525C139.109 75.8083 139.165 75.4321 139.037 75.2079" fill="#D1831F"/>
<path fill-rule="evenodd" clip-rule="evenodd" d="M131.691 72.3823L131.715 72.3903C131.787 72.4223 131.924 72.3983 132.092 72.3023C132.308 72.1822 132.476 72.0301 132.468 71.95C132.46 71.862 132.284 71.894 132.068 72.0061C131.9 72.0861 131.747 72.2062 131.707 72.2862" fill="#D1831F"/>
<path fill-rule="evenodd" clip-rule="evenodd" d="M108.178 94.3794C107.93 94.9718 108.602 95.5081 109.138 95.4841C109.723 95.4521 110.291 94.9398 110.355 94.0592C110.467 92.9305 110.003 92.066 109.723 91.5456C109.451 91.0333 109.195 90.7852 109.195 90.7852C110.227 91.7938 111.404 93.4508 110.595 95.0679C110.075 96.0925 108.65 96.0925 108.066 95.268C107.778 94.8437 107.706 94.2353 108.082 93.8511C108.234 93.699 108.45 93.6029 108.618 93.5789C109.018 93.5229 109.371 93.8751 109.187 94.2914C109.074 94.5395 108.778 94.6436 108.514 94.5315C108.418 94.4755 108.266 94.2113 108.178 94.3794Z" fill="#D1831F"/>
<path fill-rule="evenodd" clip-rule="evenodd" d="M110.325 96.3806C110.509 96.4446 110.709 96.3646 110.797 96.1965C110.885 96.0123 110.805 95.8202 110.629 95.7242C110.461 95.6601 110.237 95.7402 110.165 95.9083C110.077 96.0764 110.165 96.2845 110.325 96.3806Z" fill="#D1831F"/>
<path fill-rule="evenodd" clip-rule="evenodd" d="M111.031 95.3235C111.215 95.4116 111.423 95.3395 111.504 95.1554C111.592 94.9873 111.504 94.7711 111.335 94.6991C111.151 94.603 110.943 94.6831 110.855 94.8672C110.791 95.0433 110.879 95.2514 111.031 95.3235Z" fill="#D1831F"/>
<path fill-rule="evenodd" clip-rule="evenodd" d="M110.34 92.5303L110.332 92.5463C110.316 92.5543 110.332 92.6263 110.364 92.7064C110.404 92.8105 110.477 92.8825 110.517 92.8745C110.557 92.8745 110.549 92.7944 110.501 92.6904C110.469 92.6183 110.413 92.5463 110.38 92.5463" fill="#D1831F"/>
<path fill-rule="evenodd" clip-rule="evenodd" d="M109.063 93.8356C109.063 93.8356 109.063 93.8276 109.055 93.8116C109.039 93.7716 108.951 93.7315 108.831 93.7155C108.671 93.6755 108.527 93.6995 108.495 93.7475C108.463 93.7876 108.575 93.8596 108.719 93.8756C108.847 93.8916 108.959 93.8916 109.023 93.8756" fill="#D1831F"/>
<path fill-rule="evenodd" clip-rule="evenodd" d="M117.947 122.078L113.344 123.215C113.28 123.231 113.2 123.255 113.128 123.255C112.695 123.391 112.303 123.887 112.103 124.56C111.839 125.424 112.063 126.249 112.591 126.393C113.128 126.561 113.744 125.968 114.008 125.12C114.2 124.431 114.112 123.767 113.784 123.431L117.995 122.414L118.275 122.342L118.459 122.286L118.083 118.228L113.232 119.412C113.16 119.436 113.096 119.444 113.04 119.468C112.615 119.604 112.191 120.077 111.991 120.757C111.743 121.614 111.967 122.438 112.487 122.59C113.016 122.75 113.64 122.166 113.904 121.309C114.104 120.621 114.008 119.949 113.688 119.636L117.658 118.668L117.947 122.078Z" fill="#D1831F"/>
<path fill-rule="evenodd" clip-rule="evenodd" d="M113.223 125.096C113.199 125.096 113.183 125.088 113.159 125.08C113.039 125.088 112.887 125.192 112.783 125.352C112.647 125.56 112.647 125.809 112.775 125.881C112.911 125.969 113.111 125.857 113.255 125.648C113.367 125.48 113.391 125.296 113.319 125.184" fill="#D1831F"/>
<path fill-rule="evenodd" clip-rule="evenodd" d="M113.433 119.684C113.433 119.7 113.417 119.7 113.409 119.716C113.377 119.78 113.385 119.916 113.433 120.108C113.505 120.34 113.625 120.532 113.713 120.54C113.793 120.556 113.809 120.372 113.737 120.132C113.681 119.948 113.585 119.788 113.513 119.716" fill="#D1831F"/>
<path fill-rule="evenodd" clip-rule="evenodd" d="M120.921 78.1045L123.098 71.6204L122.393 71.3723L120.208 77.8644L120.921 78.1045ZM121.721 71.1401L115.573 69.0748C115.765 69.9714 115.221 71.1801 114.156 72.1407C112.803 73.2935 111.114 73.6057 110.402 72.7972C109.665 71.9806 110.178 70.3316 111.523 69.1549C112.579 68.2343 113.812 67.842 114.669 68.1062C114.789 68.1462 114.933 68.1943 115.085 68.2343L124.539 71.4363L124.507 71.5884L124.331 72.0447L122.161 78.5128L121.993 79.0331L121.945 79.1292L113.188 76.1593C113.38 77.0398 112.867 78.2646 111.771 79.2172C110.426 80.3859 108.737 80.7061 108.008 79.8736C107.288 79.0411 107.808 77.4161 109.153 76.2473C110.202 75.3187 111.451 74.9345 112.291 75.1747C112.411 75.2227 112.563 75.2867 112.707 75.3107L119.544 77.6242L121.721 71.1401Z" fill="#D1831F"/>
<path fill-rule="evenodd" clip-rule="evenodd" d="M111.089 78.6968C111.049 78.6888 111.017 78.6568 110.985 78.6488C110.793 78.5527 110.481 78.5928 110.185 78.7849C109.809 79.017 109.624 79.4013 109.761 79.6254C109.905 79.8336 110.329 79.8416 110.697 79.6094C111.001 79.4253 111.185 79.1291 111.169 78.913" fill="#D1831F"/>
<path fill-rule="evenodd" clip-rule="evenodd" d="M115.061 69.5225C115.045 69.5305 115.021 69.5385 114.997 69.5465C114.892 69.6105 114.788 69.8347 114.732 70.1629C114.668 70.5951 114.716 70.9874 114.844 71.0754C114.981 71.1555 115.133 70.8753 115.205 70.451C115.261 70.1148 115.237 69.7866 115.165 69.6265" fill="#D1831F"/>
<path fill-rule="evenodd" clip-rule="evenodd" d="M133.513 44.7155C132.857 43.4507 132.905 42.1459 133.609 41.7617C134.322 41.3854 135.45 42.0979 136.107 43.3547C136.699 44.5074 136.715 45.7242 136.163 46.2045L130.879 51.0715L130.535 50.6873L135.242 46.3245C134.61 46.1804 133.961 45.5641 133.513 44.7155ZM135.899 46.1164C136.283 45.9403 136.083 44.8276 135.49 43.6669C134.874 42.5141 134.073 41.7296 133.705 41.9378C133.321 42.1379 133.521 43.2346 134.113 44.3953C134.722 45.54 135.538 46.3405 135.899 46.1164Z" fill="#D1831F"/>
<path fill-rule="evenodd" clip-rule="evenodd" d="M133.509 43.9785C133.509 43.9785 133.493 44.0025 133.477 44.0185C133.445 44.0986 133.493 44.2827 133.605 44.5068C133.749 44.787 133.957 44.9952 134.069 44.9872C134.173 44.9791 134.157 44.755 133.997 44.4828C133.885 44.2507 133.725 44.0586 133.613 44.0105" fill="#D1831F"/>
<path fill-rule="evenodd" clip-rule="evenodd" d="M93.7804 119.611C93.5242 120.195 94.1966 120.732 94.741 120.708C95.3253 120.676 95.8937 120.163 95.9578 119.299C96.0698 118.162 95.6055 117.289 95.3334 116.777C95.0452 116.257 94.797 116.017 94.797 116.017C95.8217 117.017 96.9984 118.666 96.1819 120.291C95.6776 121.324 94.2447 121.324 93.6683 120.483C93.3721 120.059 93.3081 119.459 93.6843 119.067C93.8444 118.922 94.0445 118.81 94.2207 118.794C94.6209 118.746 94.9731 119.099 94.789 119.515C94.6849 119.755 94.3727 119.867 94.1166 119.755C94.0285 119.715 93.8764 119.435 93.7804 119.611Z" fill="#D1831F"/>
<path fill-rule="evenodd" clip-rule="evenodd" d="M95.9317 121.587C96.1158 121.676 96.3159 121.579 96.396 121.411C96.484 121.243 96.404 121.035 96.2279 120.955C96.0598 120.875 95.8516 120.955 95.7796 121.123C95.6835 121.307 95.7636 121.499 95.9317 121.587Z" fill="#D1831F"/>
<path fill-rule="evenodd" clip-rule="evenodd" d="M96.6362 120.555C96.8203 120.627 97.0284 120.547 97.1085 120.387C97.1965 120.203 97.1085 119.995 96.9484 119.915C96.7642 119.843 96.5561 119.907 96.468 120.083C96.396 120.267 96.4761 120.467 96.6362 120.555Z" fill="#D1831F"/>
<path fill-rule="evenodd" clip-rule="evenodd" d="M95.9534 117.738L95.9374 117.754C95.9294 117.794 95.9374 117.842 95.9774 117.922C96.0174 118.026 96.0814 118.107 96.1215 118.099C96.1535 118.099 96.1455 118.01 96.1135 117.922C96.0734 117.834 96.0334 117.77 95.9934 117.762" fill="#D1831F"/>
<path fill-rule="evenodd" clip-rule="evenodd" d="M94.6785 119.059L94.6705 119.035C94.6465 119.003 94.5585 118.955 94.4464 118.931C94.2863 118.907 94.1422 118.915 94.1022 118.979C94.0701 119.019 94.1822 119.083 94.3343 119.108C94.4544 119.124 94.5665 119.124 94.6305 119.092" fill="#D1831F"/>
<path fill-rule="evenodd" clip-rule="evenodd" d="M153.046 75.424C153.679 75.3039 153.743 74.4474 153.423 74.0071C153.078 73.5428 152.326 73.3507 151.574 73.775C150.581 74.3193 150.109 75.1918 149.828 75.7042C149.564 76.2245 149.492 76.5687 149.492 76.5687C149.756 75.1518 150.477 73.2546 152.278 73.0465C153.415 72.8944 154.207 74.0791 153.831 75.0237C153.647 75.504 153.183 75.8883 152.654 75.8002C152.438 75.7442 152.246 75.6321 152.126 75.512C151.862 75.2079 151.966 74.7035 152.406 74.6315C152.67 74.5915 152.926 74.7836 152.974 75.0558C152.998 75.1678 152.862 75.44 153.046 75.424Z" fill="#D1831F"/>
<path fill-rule="evenodd" clip-rule="evenodd" d="M153.501 72.527C153.469 72.3349 153.285 72.2228 153.093 72.2388C152.901 72.2868 152.773 72.4389 152.805 72.6471C152.829 72.8312 153.013 72.9673 153.197 72.9272C153.397 72.9032 153.517 72.7271 153.501 72.527Z" fill="#D1831F"/>
<path fill-rule="evenodd" clip-rule="evenodd" d="M152.255 72.5341C152.207 72.3499 152.039 72.2059 151.839 72.2379C151.647 72.2619 151.527 72.446 151.551 72.6381C151.591 72.8222 151.767 72.9583 151.967 72.9263C152.151 72.8943 152.271 72.7102 152.255 72.5341Z" fill="#D1831F"/>
<path fill-rule="evenodd" clip-rule="evenodd" d="M150.299 74.6716C150.299 74.6556 150.307 74.6716 150.299 74.6716C150.347 74.6636 150.388 74.6076 150.428 74.5355C150.5 74.4555 150.516 74.3514 150.5 74.3354C150.476 74.2954 150.404 74.3514 150.356 74.4395C150.307 74.5195 150.275 74.5916 150.283 74.6396" fill="#D1831F"/>
<path fill-rule="evenodd" clip-rule="evenodd" d="M152.086 74.9834C152.086 74.9994 152.078 75.0154 152.078 75.0154C152.062 75.0554 152.078 75.1595 152.126 75.2636C152.19 75.3997 152.294 75.5197 152.334 75.5197C152.398 75.5117 152.39 75.3917 152.326 75.2556C152.27 75.1435 152.198 75.0394 152.142 75.0074" fill="#D1831F"/>
<path fill-rule="evenodd" clip-rule="evenodd" d="M169.107 75.9116C168.859 76.504 169.532 77.0404 170.068 77.0163C170.652 76.9843 171.229 76.464 171.285 75.5995C171.405 74.4627 170.933 73.5902 170.66 73.0779C170.38 72.5655 170.132 72.3174 170.132 72.3174C171.157 73.326 172.341 74.9831 171.525 76.5841C171.021 77.6167 169.588 77.6247 168.995 76.7922C168.707 76.3599 168.635 75.7596 169.019 75.3673C169.179 75.2232 169.38 75.1272 169.54 75.0951C169.948 75.0471 170.308 75.4073 170.124 75.8156C170.004 76.0637 169.708 76.1678 169.452 76.0477C169.348 76.0157 169.203 75.7355 169.107 75.9116Z" fill="#D1831F"/>
<path fill-rule="evenodd" clip-rule="evenodd" d="M131.757 86.0535L129.075 86.7179C129.027 86.734 128.987 86.734 128.939 86.75C128.691 86.814 128.451 87.1102 128.347 87.4944C128.195 88.0068 128.323 88.4871 128.627 88.5751C128.939 88.6632 129.3 88.335 129.46 87.8307C129.564 87.4224 129.508 87.0301 129.316 86.846L131.773 86.2457L131.933 86.2216L132.053 86.1816L131.837 83.8281L129.011 84.5166C128.963 84.5326 128.931 84.5326 128.891 84.5486C128.651 84.6286 128.387 84.9168 128.275 85.293C128.139 85.8054 128.267 86.2777 128.571 86.3657C128.875 86.4698 129.252 86.1336 129.396 85.6132C129.516 85.213 129.452 84.8288 129.268 84.6446L131.581 84.1003L131.757 86.0535Z" fill="#D1831F"/>
<path fill-rule="evenodd" clip-rule="evenodd" d="M128.998 87.8236L128.974 87.8076C128.894 87.8156 128.806 87.8717 128.749 87.9677C128.669 88.0958 128.669 88.2319 128.749 88.2799C128.822 88.3279 128.942 88.2639 129.022 88.1358C129.086 88.0398 129.102 87.9357 129.062 87.8717" fill="#D1831F"/>
<path fill-rule="evenodd" clip-rule="evenodd" d="M129.126 84.6836L129.11 84.6916C129.094 84.7156 129.086 84.8117 129.126 84.8997C129.166 85.0518 129.238 85.1479 129.286 85.1639C129.342 85.1639 129.35 85.0678 129.31 84.9237C129.27 84.8197 129.214 84.7156 129.174 84.6836" fill="#D1831F"/>
<path fill-rule="evenodd" clip-rule="evenodd" d="M152.326 83.2615L149.644 83.934C149.604 83.95 149.556 83.95 149.516 83.966C149.276 84.03 149.036 84.3262 148.916 84.7024C148.756 85.2148 148.9 85.6871 149.204 85.7831C149.508 85.8792 149.877 85.543 150.021 85.0307C150.141 84.6304 150.085 84.2462 149.893 84.062L152.342 83.4537L152.51 83.4296L152.622 83.3896L152.414 81.0361L149.58 81.7326C149.548 81.7406 149.508 81.7486 149.468 81.7646C149.22 81.8366 148.964 82.1248 148.86 82.5011C148.708 83.0054 148.836 83.4857 149.148 83.5897C149.452 83.6778 149.82 83.3416 149.965 82.8293C150.085 82.421 150.029 82.0368 149.837 81.8607L152.15 81.3003L152.326 83.2615Z" fill="#D1831F"/>
<path fill-rule="evenodd" clip-rule="evenodd" d="M149.572 85.0303C149.572 85.0303 149.556 85.0383 149.54 85.0303C149.46 85.0303 149.372 85.0943 149.316 85.1824C149.236 85.3105 149.236 85.4385 149.324 85.4786C149.396 85.5426 149.508 85.4786 149.596 85.3425C149.652 85.2464 149.668 85.1504 149.636 85.0703" fill="#D1831F"/>
<path fill-rule="evenodd" clip-rule="evenodd" d="M149.696 81.8838C149.696 81.8838 149.68 81.8838 149.68 81.8998C149.656 81.9318 149.656 82.0199 149.688 82.1159C149.728 82.26 149.8 82.3641 149.856 82.3721C149.904 82.3801 149.912 82.276 149.872 82.1319C149.84 82.0359 149.784 81.9318 149.744 81.8998" fill="#D1831F"/>
<path fill-rule="evenodd" clip-rule="evenodd" d="M164.165 83.2448C164.829 79.6906 162.74 80.0908 161.627 82.7405C160.787 84.7818 161.099 85.9265 161.643 87.3034L160.491 89.0245C159.882 88.6642 159.194 88.5842 158.417 88.8964C157.505 89.2886 156.936 90.4013 156.848 91.0257C156.776 91.6341 156.832 92.4346 157.633 93.2991L157.064 94.1317C156.808 94.5319 156.656 94.9482 156.624 95.3484C156.592 95.6847 156.648 96.0049 156.768 96.285C156.912 96.5652 157.104 96.8054 157.393 96.9975C158.705 97.854 159.674 96.7894 159.386 95.9328C159.17 95.3004 158.409 95.0122 157.849 95.4045C157.665 95.5246 157.529 95.7007 157.449 95.9008C157.361 96.1169 157.353 96.3411 157.401 96.5492C157.273 96.4291 157.184 96.293 157.112 96.1409C157.008 95.9168 156.96 95.6526 156.984 95.3805C157.008 95.0362 157.144 94.676 157.369 94.3238L157.897 93.5473C158.769 94.2838 160.05 94.2998 160.427 94.2277C162.332 93.8915 163.789 92.1384 163.765 90.2412C163.757 89.1445 163.252 87.9198 162.86 86.9191C162.732 86.5749 162.692 86.4308 162.684 86.3908C163.396 85.3421 163.917 84.5576 164.165 83.2448ZM161.795 87.7196C162.004 88.2239 162.22 88.7763 162.42 89.4087C162.772 90.5934 162.908 91.6981 162.236 92.8028C161.403 94.1797 159.17 94.2437 158.041 93.3312L160.138 90.2172C160.723 90.6415 160.819 91.418 160.683 91.7862C160.523 92.2345 160.282 92.5947 159.81 92.6988C159.314 92.8108 159.266 92.7948 159.266 92.7948L159.25 92.9229C159.25 92.9229 160.178 93.2431 161.067 92.2825C161.955 91.3299 161.459 89.7529 160.803 89.2326L161.795 87.7196ZM157.785 93.075C157.441 92.6828 157.281 92.1704 157.409 91.53C157.681 90.2732 158.818 89.6889 159.738 90.0251C159.77 90.0331 159.786 90.0411 159.802 90.0491L157.785 93.075ZM162.476 86.0546C162.012 85.2381 161.739 83.9172 162.02 82.9966C162.324 82.0601 163.116 81.6598 163.364 82.5804C163.693 83.8132 163.14 85.0539 162.476 86.0546Z" fill="#D1831F"/>
<path fill-rule="evenodd" clip-rule="evenodd" d="M52.873 131.228C49.6709 131.084 50.2793 132.877 52.7529 133.509C54.6501 133.997 55.6107 133.581 56.7554 132.933L58.4125 133.725C58.1723 134.294 58.1883 134.902 58.5726 135.558C59.0208 136.319 60.0775 136.671 60.6299 136.663C61.1742 136.647 61.8706 136.503 62.5271 135.702L63.3436 136.095C63.7198 136.271 64.1121 136.343 64.4643 136.327C64.7605 136.311 65.0326 136.223 65.2648 136.071C65.4889 135.927 65.6891 135.719 65.8091 135.446C66.4015 134.19 65.3448 133.469 64.6244 133.829C64.096 134.093 63.9359 134.806 64.3522 135.254C64.4883 135.39 64.6564 135.494 64.8405 135.534C65.0326 135.59 65.2408 135.566 65.4169 135.494C65.3288 135.622 65.2168 135.727 65.0887 135.807C64.9046 135.927 64.6804 135.991 64.4403 136.007C64.1361 136.023 63.7999 135.951 63.4636 135.807L62.7112 135.438C63.2475 134.574 63.1034 133.453 62.9914 133.125C62.455 131.5 60.7339 130.443 59.0689 130.699C58.1163 130.843 57.0996 131.452 56.2671 131.908C55.9789 132.076 55.8588 132.108 55.8188 132.132C54.8182 131.644 54.0657 131.276 52.873 131.228ZM57.0996 132.741C57.5239 132.5 57.9722 132.236 58.5085 131.988C59.5011 131.516 60.4537 131.26 61.5024 131.716C62.8152 132.268 63.1595 134.222 62.503 135.326L59.5011 133.885C59.8133 133.317 60.4698 133.133 60.822 133.197C61.2382 133.293 61.5825 133.445 61.7346 133.861C61.8947 134.278 61.8947 134.334 61.8947 134.334L61.9987 134.318C61.9987 134.318 62.1668 133.469 61.2062 132.805C60.2536 132.148 58.9328 132.789 58.5566 133.429L57.0996 132.741ZM62.3109 135.582C62.0067 135.927 61.5745 136.143 60.9981 136.103C59.8534 136.023 59.197 135.102 59.3811 134.254C59.3811 134.23 59.3891 134.206 59.3891 134.19L62.3109 135.582ZM55.5547 132.348C54.8982 132.869 53.7775 133.269 52.929 133.141C52.0645 132.997 51.6082 132.348 52.3927 132.012C53.4413 131.564 54.5941 131.892 55.5547 132.348Z" fill="#D1831F"/>
<path fill-rule="evenodd" clip-rule="evenodd" d="M160.11 126.825C159.813 126.809 159.309 126.857 158.789 127.29C157.868 128.082 157.06 129.211 155.915 129.659C156.147 129.755 156.395 129.859 156.708 129.931C158.573 130.34 160.606 126.873 160.534 126.865L160.158 126.833L160.11 126.825ZM155.579 129.747C155.443 129.803 155.299 129.827 155.131 129.843C154.53 129.891 153.722 129.619 153.634 129.611C153.554 129.587 153.425 129.515 153.425 129.515C153.425 129.515 152.441 129.923 151.544 129.643C150.624 129.347 150.047 128.899 150.007 128.867C149.935 128.779 149.863 128.722 149.863 128.722L149.903 128.49C149.903 128.49 150.592 129.107 151.568 129.331C153.441 129.755 155.467 126.281 155.387 126.281C155.339 126.265 152.081 125.889 150.88 125.745C150.792 125.737 150.672 125.721 150.568 125.713C149.983 125.617 149.327 125.008 148.935 124.144C148.454 122.999 148.63 121.838 149.311 121.542C150.007 121.246 150.952 121.942 151.456 123.055C151.84 123.959 151.816 124.896 151.44 125.376L159.557 126.329L162.135 126.625L162.951 126.721L162.887 127.178C161.615 127.081 160.526 128.602 159.717 129.307C158.885 130.003 157.804 130.588 156.668 130.243C156.211 130.083 155.843 129.907 155.579 129.747ZM158.044 126.625C157.332 127.714 156.019 129.603 154.482 129.427C154.058 129.387 153.738 129.307 153.738 129.307C153.738 129.307 154.138 129.075 154.578 128.706C155.459 127.954 156.652 126.257 158.044 126.625Z" fill="#D1831F"/>
<path fill-rule="evenodd" clip-rule="evenodd" d="M155.686 39.7851C155.879 39.2087 156.207 38.7524 156.551 38.5683L153.133 36.455L153.301 36.1748L157.143 38.5523C157.552 38.7684 157.68 39.5209 157.456 40.3214C157.207 41.162 156.599 41.7463 156.119 41.6022C155.638 41.4421 155.446 40.6416 155.686 39.7851ZM156.111 39.9132C155.887 40.6977 155.903 41.4021 156.151 41.4742C156.407 41.5542 156.807 40.9698 157.039 40.2013C157.263 39.4008 157.255 38.6964 156.991 38.6324C156.743 38.5363 156.343 39.1207 156.111 39.9132Z" fill="#D1831F"/>
<path fill-rule="evenodd" clip-rule="evenodd" d="M157.353 40.0576C157.353 40.0736 157.369 40.0736 157.369 40.0736C157.393 40.1217 157.385 40.2417 157.329 40.3858C157.273 40.5619 157.161 40.714 157.097 40.722C157.033 40.722 157.033 40.5779 157.097 40.4018C157.145 40.2497 157.225 40.1217 157.281 40.0816" fill="#D1831F"/>
<path fill-rule="evenodd" clip-rule="evenodd" d="M125.925 103.145C126.245 102.137 126.822 101.328 127.446 101.024L121.442 97.3178L121.731 96.8135L128.471 100.984C129.175 101.368 129.415 102.673 129.007 104.066C128.559 105.555 127.502 106.572 126.662 106.307C125.829 106.067 125.493 104.65 125.925 103.145ZM126.654 103.37C126.253 104.746 126.277 105.979 126.726 106.107C127.174 106.259 127.87 105.251 128.279 103.882C128.687 102.489 128.663 101.256 128.199 101.144C127.774 100.976 127.07 102.001 126.654 103.37Z" fill="#D1831F"/>
<path fill-rule="evenodd" clip-rule="evenodd" d="M128.837 103.642C128.837 103.658 128.861 103.674 128.861 103.674C128.909 103.762 128.893 103.954 128.805 104.202C128.693 104.522 128.509 104.778 128.381 104.794C128.261 104.794 128.261 104.538 128.373 104.234C128.461 103.978 128.605 103.746 128.717 103.682" fill="#D1831F"/>
<path fill-rule="evenodd" clip-rule="evenodd" d="M110.898 106.595C111.17 108.076 110.954 109.461 110.361 110.277L120.424 111.07L120.368 111.886L109.089 111.006C107.936 110.958 106.775 109.453 106.375 107.443C105.975 105.258 106.671 103.273 107.904 103.033C109.153 102.816 110.49 104.385 110.898 106.595ZM109.849 106.771C109.457 104.754 108.632 103.225 107.96 103.345C107.312 103.449 107.087 105.194 107.448 107.219C107.848 109.236 108.672 110.773 109.337 110.661C109.985 110.565 110.209 108.788 109.849 106.771Z" fill="#D1831F"/>
<path fill-rule="evenodd" clip-rule="evenodd" d="M110.21 105.675C110.226 105.683 110.242 105.691 110.266 105.691C110.395 105.763 110.523 106.035 110.595 106.411C110.683 106.9 110.635 107.356 110.491 107.46C110.354 107.556 110.162 107.244 110.066 106.739C109.986 106.355 110.002 105.979 110.082 105.803" fill="#D1831F"/>
<path fill-rule="evenodd" clip-rule="evenodd" d="M117.07 86.0783C118.111 86.8708 118.647 87.7434 118.711 87.8395C118.775 87.9515 118.808 88.0796 118.808 88.0796L118.671 88.3518C118.671 88.3518 118.071 87.2071 116.886 86.4466C114.621 85.0217 110.322 88.5919 110.41 88.632L110.866 88.8481L116.99 91.93C117.11 91.9941 117.231 92.0421 117.359 92.1141C118.103 92.5224 118.671 93.6271 118.759 94.9479C118.856 96.669 118.079 98.1179 117.038 98.182C115.998 98.23 115.061 96.8772 114.957 95.1561C114.885 93.7952 115.365 92.5944 116.07 92.1462L108.169 88.1677L107.16 87.6393L107.472 87.071C109.097 87.8074 111.235 86.3585 112.644 85.8222C114.053 85.3099 115.75 85.0697 117.07 86.0783Z" fill="#D1831F"/>
<path fill-rule="evenodd" clip-rule="evenodd" d="M115.755 94.1475C115.779 94.1635 115.819 94.1715 115.851 94.1875C116.02 94.2675 116.164 94.4997 116.212 94.7959C116.26 95.1881 116.108 95.5163 115.867 95.5483C115.643 95.5804 115.411 95.3002 115.363 94.9079C115.323 94.6038 115.411 94.3316 115.563 94.2195" fill="#D1831F"/>
<path fill-rule="evenodd" clip-rule="evenodd" d="M110.363 87.4552C110.355 87.4792 110.355 87.4952 110.355 87.5112C110.299 87.6073 110.099 87.7193 109.819 87.7754C109.451 87.8554 109.098 87.8234 109.018 87.7113C108.946 87.6073 109.194 87.4632 109.547 87.3751C109.827 87.3191 110.123 87.3191 110.259 87.3671" fill="#D1831F"/>
<path fill-rule="evenodd" clip-rule="evenodd" d="M140.931 87.9019C140.266 88.3021 139.522 87.5737 139.458 86.9253C139.394 86.2208 139.93 85.4443 140.963 85.2282C142.3 84.908 143.42 85.3323 144.085 85.5724C144.749 85.8206 145.085 86.0847 145.085 86.0847C143.717 85.0201 141.539 83.8673 139.738 85.1081C138.577 85.8846 138.817 87.5977 139.906 88.1661C140.459 88.4462 141.195 88.4302 141.595 87.9179C141.763 87.7098 141.843 87.4456 141.843 87.2295C141.835 86.7412 141.347 86.3809 140.891 86.6611C140.619 86.8372 140.531 87.2135 140.707 87.5016C140.779 87.6217 141.123 87.7578 140.931 87.9019Z" fill="#D1831F"/>
<path fill-rule="evenodd" clip-rule="evenodd" d="M138.22 85.6376C138.084 85.4375 138.156 85.1733 138.356 85.0532C138.556 84.9171 138.813 84.9812 138.941 85.1893C139.061 85.3734 139.005 85.6456 138.805 85.7577C138.604 85.8858 138.348 85.8217 138.22 85.6376Z" fill="#D1831F"/>
<path fill-rule="evenodd" clip-rule="evenodd" d="M139.353 84.6212C139.225 84.429 139.281 84.1649 139.489 84.0448C139.674 83.9087 139.946 83.9808 140.066 84.1729C140.194 84.373 140.138 84.6372 139.93 84.7652C139.73 84.8693 139.473 84.8053 139.353 84.6212Z" fill="#D1831F"/>
<path fill-rule="evenodd" clip-rule="evenodd" d="M141.285 86.839C141.301 86.831 141.317 86.823 141.333 86.823C141.429 86.807 141.557 86.863 141.661 86.9751C141.797 87.1272 141.829 87.3033 141.741 87.3914C141.653 87.4714 141.477 87.4154 141.341 87.2633C141.237 87.1512 141.197 87.0151 141.221 86.9191" fill="#D1831F"/>
<path fill-rule="evenodd" clip-rule="evenodd" d="M143.816 85.3347C143.784 85.3587 143.728 85.3587 143.664 85.3347C143.576 85.3027 143.496 85.2547 143.496 85.2306C143.488 85.1906 143.56 85.1906 143.648 85.2146C143.72 85.2306 143.784 85.2787 143.808 85.2947" fill="#D1831F"/>
<path fill-rule="evenodd" clip-rule="evenodd" d="M132.26 124.591C130.515 125.623 128.602 123.75 128.442 122.053C128.274 120.228 129.659 118.227 132.324 117.658C135.799 116.826 138.704 117.906 140.425 118.539C142.147 119.203 143.019 119.9 143.019 119.9C139.457 117.106 133.805 114.112 129.138 117.346C126.144 119.363 126.737 123.822 129.571 125.279C131.004 126.024 132.917 125.967 133.965 124.631C134.374 124.086 134.598 123.406 134.606 122.846C134.59 121.589 133.317 120.644 132.132 121.357C131.412 121.821 131.204 122.797 131.644 123.542C131.852 123.878 132.741 124.214 132.26 124.591Z" fill="#D1831F"/>
<path fill-rule="evenodd" clip-rule="evenodd" d="M125.189 118.707C124.853 118.179 125.029 117.506 125.541 117.186C126.061 116.834 126.71 116.994 127.054 117.522C127.366 118.027 127.214 118.707 126.71 119.011C126.19 119.363 125.525 119.187 125.189 118.707Z" fill="#D1831F"/>
<path fill-rule="evenodd" clip-rule="evenodd" d="M128.12 116.089C127.808 115.561 127.952 114.88 128.48 114.552C128.969 114.216 129.665 114.4 129.985 114.88C130.298 115.409 130.162 116.097 129.633 116.425C129.113 116.722 128.44 116.554 128.12 116.089Z" fill="#D1831F"/>
<path fill-rule="evenodd" clip-rule="evenodd" d="M133.175 121.813C133.207 121.805 133.255 121.789 133.295 121.781C133.535 121.741 133.871 121.885 134.144 122.173C134.488 122.557 134.576 123.022 134.344 123.238C134.12 123.438 133.655 123.31 133.303 122.95C133.031 122.638 132.919 122.269 132.999 122.037" fill="#D1831F"/>
<path fill-rule="evenodd" clip-rule="evenodd" d="M139.716 117.915L139.692 117.923C139.628 117.971 139.492 117.963 139.3 117.907C139.068 117.835 138.875 117.723 138.867 117.627C138.859 117.547 139.044 117.531 139.276 117.603C139.46 117.667 139.628 117.755 139.684 117.827" fill="#D1831F"/>
<path fill-rule="evenodd" clip-rule="evenodd" d="M98.8462 95.844C99.2064 96.3723 98.6381 97.0287 98.1017 97.1008C97.5254 97.1808 96.869 96.7726 96.6368 95.932C96.3246 94.8433 96.6208 93.9067 96.7969 93.3464C96.973 92.786 97.1812 92.5059 97.1812 92.5059C96.3566 93.6826 95.5001 95.5238 96.5888 96.9727C97.2852 97.8773 98.6861 97.6211 99.1104 96.7005C99.3185 96.2282 99.2705 95.6198 98.8382 95.3076C98.6541 95.1876 98.4379 95.1315 98.2618 95.1315C97.8536 95.1635 97.5734 95.5718 97.8296 95.948C97.9817 96.1722 98.2939 96.2202 98.534 96.0601C98.6221 95.9801 98.7261 95.6919 98.8462 95.844Z" fill="#D1831F"/>
<path fill-rule="evenodd" clip-rule="evenodd" d="M97.092 98.1898C96.9239 98.2938 96.7078 98.2538 96.6037 98.0937C96.4836 97.9256 96.5317 97.7255 96.6838 97.6054C96.8439 97.5013 97.068 97.5414 97.1721 97.7015C97.2842 97.8536 97.2441 98.0777 97.092 98.1898Z" fill="#D1831F"/>
<path fill-rule="evenodd" clip-rule="evenodd" d="M96.2035 97.2855C96.0434 97.4056 95.8273 97.3736 95.7152 97.2055C95.6032 97.0614 95.6512 96.8292 95.7953 96.7332C95.9554 96.6051 96.1795 96.6371 96.2996 96.8132C96.3957 96.9653 96.3556 97.1895 96.2035 97.2855Z" fill="#D1831F"/>
<path fill-rule="evenodd" clip-rule="evenodd" d="M96.3803 94.4189L96.3883 94.427C96.4043 94.435 96.4043 94.515 96.3803 94.5951C96.3642 94.6991 96.3082 94.7872 96.2682 94.7872C96.2282 94.7952 96.2202 94.7151 96.2522 94.6031C96.2682 94.523 96.3082 94.435 96.3402 94.435" fill="#D1831F"/>
<path fill-rule="evenodd" clip-rule="evenodd" d="M97.8652 95.4671C97.8652 95.4511 97.8652 95.4511 97.8652 95.4351C97.8732 95.4031 97.9533 95.339 98.0734 95.307C98.2175 95.243 98.3696 95.227 98.4096 95.275C98.4496 95.307 98.3535 95.3871 98.2095 95.4431C98.0974 95.4751 97.9773 95.4991 97.9133 95.4911" fill="#D1831F"/>
<path fill-rule="evenodd" clip-rule="evenodd" d="M89.9417 125.897C89.4854 126.529 89.2853 127.217 89.3733 127.706L84.6343 125.873L84.4902 126.249L89.7976 128.314C90.3499 128.538 91.1985 128.122 91.8068 127.282C92.4793 126.377 92.5913 125.336 92.063 124.96C91.5587 124.576 90.6061 125.008 89.9417 125.897ZM90.39 126.233C90.9983 125.4 91.7108 124.88 91.991 125.072C92.2631 125.272 91.999 126.113 91.3746 126.953C90.7662 127.778 90.0537 128.306 89.7736 128.09C89.5174 127.922 89.7736 127.073 90.39 126.233Z" fill="#D1831F"/>
<path fill-rule="evenodd" clip-rule="evenodd" d="M84.9844 126.322L84.9684 126.33C84.9524 126.354 84.8724 126.338 84.8003 126.314C84.6963 126.274 84.6162 126.218 84.6162 126.186C84.6162 126.137 84.6963 126.138 84.8003 126.178C84.8804 126.202 84.9524 126.25 84.9684 126.282" fill="#D1831F"/>
<path fill-rule="evenodd" clip-rule="evenodd" d="M91.9523 126.506L91.9683 126.522C91.9923 126.594 91.9683 126.706 91.8883 126.858C91.7922 127.058 91.6561 127.202 91.5761 127.21C91.504 127.194 91.528 127.034 91.6241 126.834C91.7042 126.674 91.8082 126.562 91.8883 126.522" fill="#D1831F"/>
<path fill-rule="evenodd" clip-rule="evenodd" d="M83.1655 118.85L87.9045 119.123C87.9686 119.131 88.0406 119.131 88.1287 119.123C88.5689 119.179 89.0572 119.603 89.3694 120.219C89.7857 121.028 89.7137 121.876 89.2254 122.109C88.729 122.365 88.0086 121.908 87.6083 121.108C87.2881 120.467 87.2641 119.803 87.5203 119.411L83.1896 119.179L82.9014 119.171L82.7173 119.147L82.333 115.08L87.3202 115.368C87.3922 115.376 87.4562 115.368 87.5283 115.384C87.9686 115.432 88.4729 115.833 88.7931 116.465C89.1933 117.265 89.1293 118.114 88.641 118.354C88.1447 118.602 87.4242 118.154 87.016 117.354C86.6958 116.713 86.6637 116.033 86.9199 115.672L82.8373 115.44L83.1655 118.85Z" fill="#D1831F"/>
<path fill-rule="evenodd" clip-rule="evenodd" d="M88.3645 120.972C88.3885 120.964 88.4045 120.948 88.4285 120.932C88.5486 120.924 88.7167 121.004 88.8448 121.132C89.0129 121.324 89.0609 121.557 88.9488 121.661C88.8368 121.773 88.6126 121.709 88.4365 121.517C88.2924 121.364 88.2364 121.196 88.2844 121.076" fill="#D1831F"/>
<path fill-rule="evenodd" clip-rule="evenodd" d="M87.1696 115.681C87.1696 115.681 87.1856 115.689 87.2016 115.705C87.2496 115.761 87.2657 115.897 87.2497 116.097C87.2256 116.329 87.1376 116.545 87.0575 116.569C86.9775 116.601 86.9295 116.433 86.9535 116.169C86.9695 115.985 87.0335 115.809 87.0976 115.721" fill="#D1831F"/>
<path fill-rule="evenodd" clip-rule="evenodd" d="M144.701 57.2851L145.366 56.9249L142.028 50.9371L141.387 51.3134L144.701 57.2851ZM145.982 56.5487L152.282 53.0265C152.418 52.9704 152.562 52.8824 152.666 52.8183C153.443 52.4261 154.748 52.5782 155.948 53.2986C157.477 54.2032 158.286 55.7162 157.734 56.6608C157.173 57.6053 155.452 57.6053 153.915 56.7008C152.674 55.9643 151.938 54.8676 151.97 53.963L143.909 58.4699L143.845 58.3898L143.573 57.9095L140.258 51.9538L140.002 51.5295L139.946 51.3854L148.648 46.5103C148.784 46.4383 148.92 46.3663 149.032 46.3102C149.825 45.894 151.113 46.0541 152.306 46.7745C153.851 47.6871 154.652 49.208 154.083 50.1446C153.531 51.0652 151.818 51.0812 150.257 50.1927C149.056 49.4322 148.288 48.3595 148.32 47.4309L142.652 50.5849L145.982 56.5487Z" fill="#D1831F"/>
<path fill-rule="evenodd" clip-rule="evenodd" d="M154.481 56.0671C154.521 56.0511 154.545 56.0111 154.577 55.9951C154.745 55.867 155.058 55.843 155.386 55.9871C155.802 56.1552 156.05 56.4914 155.946 56.7396C155.842 56.9717 155.442 57.0518 155.026 56.8997C154.697 56.7636 154.465 56.5154 154.449 56.2993" fill="#D1831F"/>
<path fill-rule="evenodd" clip-rule="evenodd" d="M148.909 47.7666C148.933 47.7746 148.949 47.7746 148.973 47.7826C149.085 47.8226 149.229 48.0228 149.349 48.335C149.493 48.7512 149.517 49.1595 149.413 49.2555C149.293 49.3596 149.093 49.1034 148.941 48.7112C148.821 48.383 148.789 48.0628 148.829 47.9027" fill="#D1831F"/>
<path fill-rule="evenodd" clip-rule="evenodd" d="M161.091 115.033C161.98 115.377 162.66 115.954 162.9 116.562L166.703 111.383L167.127 111.679L162.884 117.483C162.46 118.091 161.251 118.219 160.05 117.755C158.722 117.251 157.881 116.21 158.185 115.457C158.465 114.713 159.754 114.521 161.091 115.033ZM160.835 115.666C159.618 115.201 158.506 115.137 158.345 115.537C158.177 115.922 159.05 116.634 160.267 117.114C161.491 117.571 162.612 117.635 162.756 117.235C162.932 116.85 162.044 116.138 160.835 115.666Z" fill="#D1831F"/>
<path fill-rule="evenodd" clip-rule="evenodd" d="M160.343 115.098C160.359 115.09 160.375 115.066 160.375 115.066C160.463 115.018 160.639 115.05 160.879 115.138C161.183 115.25 161.399 115.426 161.407 115.539C161.407 115.651 161.183 115.651 160.887 115.531C160.647 115.442 160.439 115.314 160.375 115.202" fill="#D1831F"/>
<path fill-rule="evenodd" clip-rule="evenodd" d="M4.35463 118.186C4.70686 118.714 4.1465 119.355 3.61016 119.435C3.0338 119.515 2.37738 119.107 2.15324 118.266C1.83304 117.17 2.13723 116.233 2.30534 115.673C2.48946 115.112 2.68958 114.832 2.68958 114.832C1.86506 116.009 1.00852 117.85 2.10521 119.291C2.78564 120.211 4.20254 119.955 4.6188 119.027C4.82693 118.562 4.78691 117.954 4.33862 117.642C4.15451 117.522 3.93837 117.458 3.76226 117.466C3.36201 117.49 3.08183 117.906 3.32999 118.274C3.48208 118.498 3.80228 118.546 4.02643 118.394C4.1385 118.33 4.23456 118.034 4.35463 118.186Z" fill="#D1831F"/>
<path fill-rule="evenodd" clip-rule="evenodd" d="M2.59719 120.524C2.42908 120.652 2.22095 120.588 2.10888 120.436C1.9888 120.268 2.02883 120.06 2.18893 119.948C2.34103 119.836 2.55716 119.876 2.66123 120.028C2.78931 120.204 2.74928 120.412 2.59719 120.524Z" fill="#D1831F"/>
<path fill-rule="evenodd" clip-rule="evenodd" d="M1.71843 119.636C1.55032 119.748 1.33419 119.708 1.22212 119.548C1.10204 119.388 1.15808 119.172 1.29416 119.059C1.46227 118.955 1.6784 118.979 1.79848 119.148C1.91055 119.308 1.86252 119.524 1.71843 119.636Z" fill="#D1831F"/>
<path fill-rule="evenodd" clip-rule="evenodd" d="M1.87577 116.737C1.87577 116.753 1.89178 116.753 1.89178 116.753C1.90779 116.785 1.89979 116.841 1.88378 116.921C1.86777 117.033 1.81173 117.122 1.77971 117.122C1.73969 117.13 1.73168 117.033 1.7557 116.953C1.77971 116.857 1.81173 116.785 1.84375 116.769" fill="#D1831F"/>
<path fill-rule="evenodd" clip-rule="evenodd" d="M3.37793 117.801V117.777C3.39394 117.737 3.47399 117.673 3.57806 117.625C3.73015 117.577 3.88225 117.561 3.91427 117.609C3.95429 117.641 3.85823 117.729 3.71414 117.777C3.59407 117.817 3.49 117.841 3.41795 117.817" fill="#D1831F"/>
<path fill-rule="evenodd" clip-rule="evenodd" d="M135.413 65.6103C134.772 65.6103 134.556 64.7778 134.788 64.2895C135.036 63.7772 135.741 63.449 136.565 63.7291C137.654 64.0814 138.27 64.8498 138.639 65.3061C138.999 65.7704 139.127 66.0986 139.127 66.0986C138.615 64.7538 137.558 63.0167 135.749 63.1368C134.612 63.1928 134.044 64.5056 134.572 65.3622C134.836 65.8104 135.373 66.0986 135.869 65.9145C136.069 65.8185 136.245 65.6744 136.341 65.5223C136.541 65.1781 136.357 64.6977 135.901 64.7058C135.637 64.7138 135.413 64.9459 135.421 65.2261C135.413 65.3542 135.605 65.5943 135.413 65.6103Z" fill="#D1831F"/>
<path fill-rule="evenodd" clip-rule="evenodd" d="M134.445 62.8397C134.437 62.6556 134.605 62.4955 134.789 62.4795C134.989 62.4875 135.141 62.6316 135.149 62.8237C135.157 63.0158 134.997 63.1839 134.813 63.1759C134.605 63.1919 134.461 63.0398 134.445 62.8397Z" fill="#D1831F"/>
<path fill-rule="evenodd" clip-rule="evenodd" d="M135.679 62.6162C135.679 62.4321 135.823 62.2639 136.023 62.2559C136.207 62.2399 136.367 62.408 136.383 62.5922C136.375 62.7763 136.223 62.9444 136.023 62.9524C135.839 62.9604 135.679 62.7923 135.679 62.6162Z" fill="#D1831F"/>
<path fill-rule="evenodd" clip-rule="evenodd" d="M137.971 64.3689C137.971 64.3529 137.955 64.3689 137.955 64.3689C137.915 64.3689 137.875 64.3208 137.819 64.2488C137.731 64.1768 137.691 64.0807 137.707 64.0647C137.723 64.0247 137.803 64.0647 137.875 64.1367C137.931 64.2088 137.979 64.2888 137.979 64.3289" fill="#D1831F"/>
<path fill-rule="evenodd" clip-rule="evenodd" d="M136.274 65.001C136.274 65.017 136.29 65.025 136.29 65.025C136.315 65.065 136.315 65.1691 136.282 65.2812C136.25 65.4332 136.17 65.5693 136.122 65.5693C136.058 65.5773 136.042 65.4573 136.082 65.3052C136.122 65.1851 136.162 65.081 136.21 65.033" fill="#D1831F"/>
<path fill-rule="evenodd" clip-rule="evenodd" d="M159.948 25.6551L162.702 25.8152C162.75 25.8232 162.798 25.8232 162.838 25.8312C163.102 25.8472 163.382 26.0954 163.558 26.4476C163.806 26.9279 163.758 27.4162 163.478 27.5603C163.198 27.7044 162.774 27.4482 162.542 26.9759C162.357 26.5997 162.341 26.2075 162.493 25.9913L159.972 25.8472H159.804L159.684 25.8312L159.476 23.4697L162.365 23.6378C162.413 23.6538 162.445 23.6458 162.493 23.6538C162.75 23.6859 163.046 23.918 163.238 24.2702C163.462 24.7425 163.422 25.2388 163.134 25.3749C162.854 25.535 162.429 25.2629 162.197 24.7986C162.013 24.4223 162.005 24.0301 162.141 23.8139L159.772 23.6939L159.948 25.6551Z" fill="#D1831F"/>
<path fill-rule="evenodd" clip-rule="evenodd" d="M162.971 26.8881C162.987 26.8881 163.003 26.8721 163.003 26.8721C163.075 26.8641 163.171 26.9041 163.251 26.9842C163.347 27.0962 163.379 27.2323 163.307 27.2884C163.243 27.3524 163.115 27.3124 163.019 27.2003C162.931 27.1203 162.899 27.0162 162.923 26.9441" fill="#D1831F"/>
<path fill-rule="evenodd" clip-rule="evenodd" d="M162.278 23.8135C162.278 23.8135 162.294 23.8135 162.302 23.8295C162.318 23.8535 162.342 23.9336 162.326 24.0376C162.318 24.1897 162.262 24.3018 162.222 24.3258C162.166 24.3338 162.142 24.2377 162.15 24.0857C162.166 23.9896 162.198 23.8775 162.238 23.8295" fill="#D1831F"/>
<path fill-rule="evenodd" clip-rule="evenodd" d="M124.094 67.1696L126.847 67.3377C126.895 67.3457 126.935 67.3457 126.983 67.3537C127.24 67.3697 127.52 67.6178 127.712 67.9621C127.952 68.4504 127.912 68.9307 127.624 69.0748C127.336 69.2269 126.911 68.9627 126.679 68.4904C126.503 68.1142 126.487 67.7299 126.631 67.5138L124.11 67.3617H123.941L123.829 67.3537L123.613 64.9922L126.511 65.1603C126.559 65.1683 126.591 65.1683 126.631 65.1763C126.895 65.2003 127.192 65.4325 127.368 65.7847C127.608 66.265 127.568 66.7533 127.28 66.9134C126.999 67.0495 126.575 66.7853 126.343 66.321C126.159 65.9368 126.143 65.5525 126.295 65.3364L123.909 65.2083L124.094 67.1696Z" fill="#D1831F"/>
<path fill-rule="evenodd" clip-rule="evenodd" d="M127.121 68.4016C127.121 68.4016 127.145 68.4016 127.153 68.3856C127.225 68.3776 127.329 68.4257 127.401 68.5057C127.505 68.6178 127.529 68.7459 127.457 68.8019C127.393 68.8739 127.265 68.8339 127.153 68.7138C127.081 68.6338 127.049 68.5377 127.065 68.4577" fill="#D1831F"/>
<path fill-rule="evenodd" clip-rule="evenodd" d="M126.424 65.3359C126.424 65.3359 126.44 65.3359 126.44 65.352C126.464 65.376 126.488 65.464 126.472 65.5601C126.464 65.7202 126.408 65.8323 126.36 65.8483C126.304 65.8643 126.288 65.7602 126.296 65.6161C126.312 65.5121 126.344 65.4 126.376 65.36" fill="#D1831F"/>
<path d="M176.67 130.033C171.027 127.992 164.935 126.631 158.475 126.03C164.871 126.807 170.978 128.12 176.67 130.033Z" fill="#D1831F"/>
<path d="M45.941 142.371C81.9397 132.812 121.044 122.926 154.089 125.744C155.57 125.8 157.027 125.912 158.476 126.032C157.043 125.864 155.602 125.712 154.145 125.584C137.479 124.183 118.883 125.992 100.503 129.346C82.372 132.62 64.3526 137.535 45.8609 142.258C27.9216 146.909 12.0796 146.333 0 142.178V142.25C2.57763 143.131 5.30735 143.867 8.18116 144.42C19.076 146.453 31.5719 145.997 45.941 142.371Z" fill="#D1831F"/>
<path d="M49.0069 139.752C84.3012 128.785 123.942 117.258 158.444 118.771C173.846 119.483 188.479 122.909 200.126 130.77V130.45C197.845 128.945 195.451 127.592 192.946 126.384C182.795 121.508 170.94 119.155 158.492 118.603C141.041 117.818 121.989 120.436 103.385 124.534C85.0617 128.537 67.0023 134.164 48.9109 139.648C29.1544 145.676 12.3518 145.027 0 139.936V140.072C3.71434 141.577 7.85296 142.706 12.3038 143.362C22.8944 144.923 34.9661 143.955 49.0069 139.752Z" fill="#D1831F"/>
<path d="M52.0168 137.055C86.7107 124.599 126.704 111.239 162.655 111.167C175.855 111.207 188.823 113.088 200.126 118.203V117.971C188.911 112.968 175.991 110.982 162.679 110.982C144.459 110.998 124.991 114.521 106.211 119.46C87.7194 124.295 69.628 130.707 51.9128 136.967C30.2911 144.596 12.624 143.811 0 137.583V137.719C4.68296 140.001 10.1664 141.578 16.2182 142.226C26.5528 143.307 38.2642 141.858 52.0168 137.055Z" fill="#D1831F"/>
<path d="M54.9947 134.245C89.1683 120.212 129.282 104.834 166.641 102.865C178.048 102.345 189.504 103.089 200.126 106.131V105.883C189.592 102.897 178.152 102.105 166.649 102.673C147.653 103.626 127.857 108.181 108.957 114.04C90.361 119.804 72.2696 127.072 54.8826 134.149C31.3718 143.683 13.0002 142.618 0 135.037V135.19C5.50748 138.44 12.3038 140.497 19.9726 141.001C30.091 141.618 41.5062 139.688 54.9947 134.245Z" fill="#D1831F"/>
<path d="M23.5909 139.672C33.5412 139.848 44.7002 137.438 57.9566 131.33C91.6579 115.592 131.651 98.0212 170.291 93.8746C180.218 92.906 190.352 92.7779 200.126 94.2668V94.0187C190.408 92.5458 180.282 92.6418 170.275 93.6585C150.575 95.7238 130.562 101.391 111.598 108.284C92.9547 115.072 74.9113 123.285 57.8285 131.226C33.8133 142.305 15.5378 141.585 2.16937 133.764C1.40088 133.299 0.69644 132.811 0 132.315V132.435C0.680429 132.915 1.36886 133.396 2.11333 133.852C8.01306 137.422 15.3297 139.495 23.5909 139.672Z" fill="#D1831F"/>
<path d="M27.1131 138.271C36.9273 138.007 47.8862 135.101 60.9104 128.281C94.1955 110.717 133.756 90.7768 173.51 84.1647C182.219 82.8278 191.209 82.0353 200.118 82.3715V82.1154C191.241 81.7872 182.243 82.5556 173.461 83.9485C153.129 87.2706 133.036 94.155 114.096 102.176C95.5083 110.053 77.569 119.315 60.7744 128.176C37.1434 140.512 19.3482 140.536 5.65957 133.292C3.52222 132.099 1.66505 130.77 0 129.393V129.521C1.65705 130.89 3.50621 132.203 5.62755 133.38C11.6794 136.718 18.964 138.463 27.1131 138.271Z" fill="#D1831F"/>
<path d="M30.5713 136.781C40.2814 136.061 51.0802 132.659 63.8883 125.094C96.7571 105.546 135.558 83.0914 176.183 73.7655C183.932 72.1004 191.985 70.7876 200.126 70.2593V69.9951C191.993 70.5235 183.916 71.8283 176.111 73.5494C155.266 78.2723 135.245 86.4455 116.441 95.6833C98.0059 104.761 80.2346 115.144 63.7362 124.998C40.4735 138.67 23.0465 139.399 9.04571 132.731C5.42743 130.914 2.47356 128.68 0 126.391V126.511C2.46556 128.784 5.41142 131.01 9.01369 132.819C15.2256 135.925 22.5022 137.358 30.5713 136.781Z" fill="#D1831F"/>
<path d="M12.3118 132.179C18.6838 135.036 25.9764 136.157 33.9895 135.22C43.6275 134.052 54.3143 130.129 66.8822 121.748C99.3427 100.054 136.998 74.9264 178.168 62.7027C185.261 60.5814 192.602 58.7802 200.126 57.6115V57.4834C192.57 58.6681 185.165 60.4293 178.064 62.4705C156.867 68.7305 137.103 78.2565 118.571 88.7912C100.423 99.1337 82.9163 110.749 66.7221 121.652C43.8357 136.749 26.6488 138.166 12.3278 132.082C7.15652 129.745 3.14599 126.519 0 123.413V123.541C3.14599 126.639 7.14051 129.849 12.3118 132.179Z" fill="#D1831F"/>
<path d="M37.3996 133.572C46.9897 131.931 57.5964 127.48 69.9241 118.242C101.936 94.2273 138.047 66.3057 179.361 51.0241C185.973 48.5825 192.93 46.3491 200.126 44.572V44.3799C192.89 46.157 185.885 48.3824 179.217 50.7839C157.852 58.6689 138.575 69.5718 120.468 81.4913C102.761 93.1867 85.614 106.115 69.756 118.146C47.2618 134.773 30.2191 136.846 15.5538 131.363C8.73351 128.625 3.70634 124.302 0 120.572V120.684C3.70634 124.414 8.73351 128.729 15.5378 131.475C22.0859 134.084 29.4026 134.877 37.3996 133.572Z" fill="#D1831F"/>
<path d="M18.7318 130.683C25.4481 133.045 32.8207 133.533 40.8178 131.828C50.3918 129.715 60.9505 124.72 72.9981 114.561C104.506 88.0165 138.615 57.181 179.585 38.7774C186.061 35.9516 192.938 33.2059 200.126 30.8204V30.4922C192.882 32.8937 185.949 35.6635 179.409 38.5373C158.132 48.1033 139.568 60.3991 122.069 73.7755C104.978 86.8718 88.3197 101.225 72.814 114.449C50.76 132.725 33.7333 135.446 18.7398 130.571C10.4386 127.634 4.45081 122.278 0.352222 118.268C0.224141 118.14 0.120076 118.035 0 117.907V118.027C0.0960606 118.123 0.184116 118.212 0.280177 118.308C4.39477 122.334 10.3906 127.722 18.7318 130.683Z" fill="#D1831F"/>
<path d="M21.9178 129.81C28.8182 131.923 36.2709 132.083 44.2759 129.978C53.858 127.384 64.3926 121.805 76.12 110.646C107.028 81.4113 138.672 47.5259 178.745 26.0323C185.397 22.5661 192.538 19.092 200.126 15.938V15.5938C192.465 18.7718 185.245 22.286 178.529 25.8082C157.611 37.0793 140.048 50.7439 123.342 65.6333C107.068 80.1705 91.0094 96.0525 75.9279 110.566C54.3703 130.594 37.2555 133.956 21.9018 129.706C13.3684 127.08 6.99642 121.869 2.60965 117.906C1.68106 117.05 0.816515 116.217 0 115.417V115.521C0.800505 116.297 1.64904 117.106 2.56162 117.954C6.95639 121.925 13.3364 127.168 21.9178 129.81Z" fill="#D1831F"/>
<path d="M25.1038 128.865C32.2043 130.714 39.7531 130.554 47.7982 128.041C57.3962 124.943 67.9389 118.747 79.298 106.539C109.485 74.3829 138.143 37.3756 176.688 12.9442C183.7 8.58942 191.329 4.14662 199.622 0H198.91C190.8 4.09859 183.292 8.45333 176.423 12.736C156.179 25.6402 139.912 40.6256 124.222 57.06C108.973 73.0861 93.6911 90.5772 79.0899 106.459C58.1007 128.377 40.7937 132.372 25.0878 128.761C16.3063 126.456 9.55803 121.381 4.89909 117.498C3.03391 115.905 1.36086 114.392 0 113.095V113.199C1.35285 114.472 3.00189 115.985 4.83505 117.546C9.51801 121.445 16.2823 126.544 25.1038 128.865Z" fill="#D1831F"/>
<path fill-rule="evenodd" clip-rule="evenodd" d="M68.3614 119.595C66.3441 119.851 65.9759 122.501 66.8885 123.941C67.8731 125.486 70.1865 126.231 72.6441 125.054C75.9022 123.597 77.5432 120.964 78.5278 119.411C79.4804 117.842 79.7446 116.753 79.7446 116.753C78.6239 121.14 75.9742 126.951 70.3066 127.248C66.7044 127.472 64.4549 123.589 65.7998 120.699C66.4802 119.243 68.0332 118.114 69.6662 118.53C70.3306 118.722 70.923 119.114 71.2672 119.555C72.0197 120.563 71.5874 122.092 70.2106 122.244C69.362 122.316 68.5935 121.676 68.4895 120.811C68.4735 120.411 68.9698 119.603 68.3614 119.595Z" fill="#D1831F"/>
<path fill-rule="evenodd" clip-rule="evenodd" d="M66.3447 128.577C66.4008 129.201 66.9531 129.634 67.5535 129.57C68.1779 129.53 68.5942 129.009 68.5541 128.385C68.4901 127.801 67.9538 127.352 67.3694 127.416C66.737 127.448 66.3207 127.985 66.3447 128.577Z" fill="#D1831F"/>
<path fill-rule="evenodd" clip-rule="evenodd" d="M70.2623 128.864C70.3343 129.472 70.8707 129.928 71.4791 129.864C72.0714 129.832 72.5117 129.264 72.4717 128.696C72.3916 128.087 71.8633 127.607 71.2469 127.679C70.6625 127.743 70.2223 128.295 70.2623 128.864Z" fill="#D1831F"/>
<path fill-rule="evenodd" clip-rule="evenodd" d="M70.7699 121.235C70.7939 121.227 70.8499 121.211 70.8899 121.195C71.1061 121.075 71.2822 120.755 71.3222 120.363C71.3622 119.858 71.1461 119.434 70.8339 119.394C70.5297 119.378 70.2415 119.762 70.1855 120.259C70.1615 120.675 70.2896 121.035 70.4977 121.171" fill="#D1831F"/>
<path fill-rule="evenodd" clip-rule="evenodd" d="M78.3414 120.339L78.3174 120.347C78.2374 120.347 78.1253 120.443 78.0132 120.595C77.8692 120.795 77.7891 121.011 77.8451 121.083C77.8852 121.155 78.0453 121.051 78.1814 120.859C78.2934 120.691 78.3655 120.523 78.3655 120.427" fill="#D1831F"/>
</g>
</svg>
