<svg width="165" height="49" viewBox="0 0 165 49" fill="none" xmlns="http://www.w3.org/2000/svg">
<g clip-path="url(#clip0_612_346)">
<path d="M158.068 0H6.07955C2.7219 0 0 2.72191 0 6.07955V42.5568C0 45.9145 2.7219 48.6364 6.07955 48.6364H158.068C161.426 48.6364 164.148 45.9145 164.148 42.5568V6.07955C164.148 2.72191 161.426 0 158.068 0Z" fill="black"/>
<path d="M158.068 0.972727C160.889 0.972727 163.175 3.25864 163.175 6.07955V42.5568C163.175 45.3777 160.889 47.6636 158.068 47.6636H6.07955C3.25864 47.6636 0.972727 45.3777 0.972727 42.5568V6.07955C0.972727 3.25864 3.25864 0.972727 6.07955 0.972727H158.068ZM158.068 0H6.07955C2.7358 0 0 2.7358 0 6.07955V42.5568C0 45.9006 2.7358 48.6364 6.07955 48.6364H158.068C161.412 48.6364 164.148 45.9006 164.148 42.5568V6.07955C164.148 2.7358 161.412 0 158.068 0Z" fill="#A6A6A6"/>
<path d="M57.6584 12.4511C57.6584 13.4724 57.3545 14.2871 56.7465 14.8829C56.0656 15.6003 55.178 15.9651 54.0715 15.9651C52.965 15.9651 52.1139 15.6003 51.3844 14.8707C50.6548 14.1412 50.29 13.2293 50.29 12.1593C50.29 11.0893 50.6548 10.1773 51.3844 9.44779C52.1139 8.71824 53.0137 8.34131 54.0715 8.34131C54.6065 8.34131 55.1172 8.43858 55.5914 8.62097C56.0656 8.81551 56.4547 9.08301 56.7587 9.42347L56.0899 10.0922C55.8711 9.82472 55.5792 9.60585 55.2145 9.45995C54.8619 9.30188 54.4728 9.22892 54.0715 9.22892C53.2812 9.22892 52.6003 9.50858 52.0531 10.0557C51.5059 10.6151 51.2384 11.3081 51.2384 12.1471C51.2384 12.9861 51.5059 13.6791 52.0531 14.2385C52.6003 14.7856 53.269 15.0653 54.0715 15.0653C54.8011 15.0653 55.3969 14.8586 55.8832 14.4573C56.3696 14.0561 56.6492 13.4846 56.7222 12.7794H54.0715V11.9039H57.6098C57.6463 12.0985 57.6584 12.2809 57.6584 12.4511Z" fill="white" stroke="white" stroke-width="0.2" stroke-miterlimit="10"/>
<path d="M63.264 8.51172V9.41149H59.9446V11.7217H62.9357V12.5972H59.9446V14.9074H63.264V15.8072H59.0083V8.51172H63.264Z" fill="white" stroke="white" stroke-width="0.2" stroke-miterlimit="10"/>
<path d="M67.2153 9.41149V15.8072H66.2791V9.41149H64.2363V8.51172H69.2459V9.41149H67.2031H67.2153Z" fill="white" stroke="white" stroke-width="0.2" stroke-miterlimit="10"/>
<path d="M73.8181 15.8072H72.8818V8.51172H73.8181V15.8072Z" fill="white" stroke="white" stroke-width="0.2" stroke-miterlimit="10"/>
<path d="M77.976 9.41149V15.8072H77.0398V9.41149H74.9971V8.51172H80.0066V9.41149H77.9639H77.976Z" fill="white" stroke="white" stroke-width="0.2" stroke-miterlimit="10"/>
<path d="M90.5729 12.1593C90.5729 13.2414 90.2081 14.1412 89.4908 14.8707C88.7612 15.6003 87.8736 15.9651 86.8158 15.9651C85.7579 15.9651 84.8703 15.6003 84.1408 14.8707C83.4234 14.1412 83.0586 13.2414 83.0586 12.1593C83.0586 11.0771 83.4234 10.1773 84.1408 9.44779C84.8581 8.71824 85.7458 8.34131 86.8158 8.34131C87.8858 8.34131 88.7612 8.70608 89.4908 9.44779C90.2081 10.1773 90.5729 11.0771 90.5729 12.1471V12.1593ZM84.0313 12.1593C84.0313 12.9982 84.2988 13.7035 84.8217 14.2506C85.3567 14.7978 86.0254 15.0774 86.8158 15.0774C87.6061 15.0774 88.2748 14.7978 88.7977 14.2506C89.3327 13.7035 89.6002 13.0104 89.6002 12.1593C89.6002 11.3081 89.3327 10.6151 88.7977 10.0679C88.2627 9.52074 87.6061 9.24108 86.8158 9.24108C86.0254 9.24108 85.3567 9.52074 84.8217 10.0679C84.2867 10.6151 84.0313 11.3203 84.0313 12.1593Z" fill="white" stroke="white" stroke-width="0.2" stroke-miterlimit="10"/>
<path d="M92.8225 15.8072H91.8862V8.51172H93.0292L96.5796 14.19H96.6161L96.5796 12.7796V8.51172H97.5159V15.8072H96.5432L92.8346 9.86138H92.7982L92.8346 11.2718V15.8193L92.8225 15.8072Z" fill="white" stroke="white" stroke-width="0.2" stroke-miterlimit="10"/>
<path d="M82.8521 26.4462C79.9947 26.4462 77.6601 28.6226 77.6601 31.6138C77.6601 34.6049 79.9947 36.7814 82.8521 36.7814C85.7094 36.7814 88.044 34.5928 88.044 31.6138C88.044 28.6348 85.7094 26.4462 82.8521 26.4462ZM82.8521 34.7508C81.2835 34.7508 79.9339 33.462 79.9339 31.6138C79.9339 29.7656 81.2835 28.4767 82.8521 28.4767C84.4206 28.4767 85.7702 29.7534 85.7702 31.6138C85.7702 33.4741 84.4206 34.7508 82.8521 34.7508ZM71.532 26.4462C68.6746 26.4462 66.34 28.6226 66.34 31.6138C66.34 34.6049 68.6746 36.7814 71.532 36.7814C74.3893 36.7814 76.7239 34.5928 76.7239 31.6138C76.7239 28.6348 74.3893 26.4462 71.532 26.4462ZM71.532 34.7508C69.9634 34.7508 68.6138 33.462 68.6138 31.6138C68.6138 29.7656 69.9634 28.4767 71.532 28.4767C73.1005 28.4767 74.4501 29.7534 74.4501 31.6138C74.4501 33.4741 73.1005 34.7508 71.532 34.7508ZM58.0597 28.0269V30.2155H63.3124C63.1543 31.4436 62.7409 32.3555 62.1208 32.9756C61.3548 33.7416 60.1632 34.5806 58.0718 34.5806C54.8375 34.5806 52.3084 31.9786 52.3084 28.7442C52.3084 25.5099 54.8375 22.9079 58.0718 22.9079C59.8106 22.9079 61.0873 23.5888 62.0235 24.4764L63.5677 22.9322C62.2546 21.6798 60.5158 20.7192 58.0597 20.7192C53.6338 20.7192 49.9131 24.3183 49.9131 28.7564C49.9131 33.1945 53.6338 36.7936 58.0597 36.7936C60.455 36.7936 62.2546 36.0154 63.665 34.5441C65.112 33.0972 65.5618 31.0545 65.5618 29.413C65.5618 28.9023 65.5254 28.4281 65.4402 28.039H58.0597V28.0269ZM113.153 29.7291C112.727 28.574 111.414 26.434 108.727 26.434C106.039 26.434 103.851 28.5254 103.851 31.6016C103.851 34.4955 106.039 36.7692 108.982 36.7692C111.353 36.7692 112.727 35.3223 113.286 34.4833L111.523 33.3039C110.94 34.1672 110.137 34.7387 108.982 34.7387C107.827 34.7387 107 34.2158 106.477 33.1701L113.396 30.3128L113.165 29.7291H113.153ZM106.1 31.4557C106.039 29.4616 107.644 28.4403 108.8 28.4403C109.699 28.4403 110.465 28.8901 110.721 29.5346L106.1 31.4557ZM100.483 36.4653H102.757V21.2664H100.483V36.4653ZM96.7621 27.5891H96.6891C96.1784 26.9812 95.2057 26.434 93.9655 26.434C91.3756 26.434 89.0046 28.7078 89.0046 31.6259C89.0046 34.5441 91.3756 36.7814 93.9655 36.7814C95.1935 36.7814 96.1784 36.2342 96.6891 35.602H96.7621V36.3437C96.7621 38.3256 95.7042 39.3834 94.0019 39.3834C92.6158 39.3834 91.7525 38.3864 91.3999 37.5474L89.418 38.3742C89.9895 39.7482 91.4972 41.4262 94.0019 41.4262C96.6648 41.4262 98.9142 39.8576 98.9142 36.0397V26.7501H96.7621V27.5891ZM94.16 34.7387C92.5915 34.7387 91.2783 33.4255 91.2783 31.6259C91.2783 29.8264 92.5915 28.4767 94.16 28.4767C95.7285 28.4767 96.9201 29.8142 96.9201 31.6259C96.9201 33.4376 95.7042 34.7387 94.16 34.7387ZM123.804 21.2664H118.369V36.4653H120.643V30.7019H123.816C126.333 30.7019 128.801 28.878 128.801 25.9841C128.801 23.0903 126.333 21.2664 123.816 21.2664H123.804ZM123.865 28.5983H120.643V23.3821H123.865C125.567 23.3821 126.528 24.7925 126.528 25.9841C126.528 27.1757 125.567 28.5862 123.865 28.5862V28.5983ZM137.884 26.4097C136.243 26.4097 134.54 27.1392 133.835 28.7321L135.854 29.5711C136.279 28.7321 137.082 28.4524 137.921 28.4524C139.088 28.4524 140.292 29.1576 140.304 30.41V30.5681C139.89 30.3371 139.015 29.9845 137.933 29.9845C135.756 29.9845 133.555 31.1761 133.555 33.4012C133.555 35.4317 135.331 36.7449 137.325 36.7449C138.845 36.7449 139.696 36.064 140.219 35.2615H140.292V36.4288H142.48V30.6046C142.48 27.9053 140.462 26.3975 137.86 26.3975L137.884 26.4097ZM137.604 34.7387C136.863 34.7387 135.829 34.3617 135.829 33.4498C135.829 32.2825 137.118 31.8326 138.237 31.8326C139.234 31.8326 139.708 32.0515 140.304 32.3433C140.134 33.7538 138.918 34.7508 137.604 34.7508V34.7387ZM150.469 26.738L147.867 33.3282H147.794L145.094 26.738H142.65L146.699 35.9546L144.389 41.0736H146.76L152.998 26.738H150.481H150.469ZM130.029 36.4653H132.303V21.2664H130.029V36.4653Z" fill="white"/>
<path d="M25.1936 23.6132L12.2441 37.353C12.6454 38.8486 14.0072 39.9429 15.6244 39.9429C16.2688 39.9429 16.8768 39.7727 17.3996 39.4565L17.4361 39.4322L32.0027 31.0303L25.1814 23.6011L25.1936 23.6132Z" fill="#EA4335"/>
<path d="M38.289 21.2785H38.2769L31.9906 17.6187L24.9019 23.9292L32.0149 31.0423L38.2769 27.431C39.3712 26.8352 40.1129 25.6801 40.1129 24.3548C40.1129 23.0294 39.3833 21.8743 38.289 21.2907V21.2785Z" fill="#FBBC04"/>
<path d="M12.2441 11.2837C12.1712 11.5755 12.1226 11.8673 12.1226 12.1835V36.453C12.1226 36.7691 12.159 37.061 12.2441 37.3528L25.6313 23.9656L12.2441 11.2837Z" fill="#4285F4"/>
<path d="M25.2908 24.3182L31.9905 17.6186L17.4361 9.18016C16.9132 8.86403 16.2931 8.68164 15.6244 8.68164C14.0072 8.68164 12.6454 9.78812 12.2441 11.2715L25.2908 24.3061V24.3182Z" fill="#34A853"/>
</g>
<defs>
<clipPath id="clip0_612_346">
<rect width="164.148" height="48.6364" fill="white"/>
</clipPath>
</defs>
</svg>
