<svg width="14" height="21" viewBox="0 0 14 21" fill="none" xmlns="http://www.w3.org/2000/svg">
<path d="M5.80557 0.155577C5.15244 0.144835 4.61533 1.59331 5.27705 1.86573L5.65947 2.02085L6.42432 1.35483L6.34697 0.345069L5.97314 0.190382C5.92588 0.171905 5.88291 0.161163 5.83564 0.156866H5.80557V0.155577ZM11.5806 0.49589H11.4817C11.1638 0.50878 10.8243 0.586983 10.4806 0.74296C9.56963 1.15847 8.60713 2.14675 7.91533 3.99741L3.49385 15.9599L3.48955 15.9685V15.9771C3.52822 15.9986 3.64424 16.0587 3.8333 16.149C4.25439 16.3552 4.86455 16.8236 4.95478 17.8162V17.8376L4.91182 20.2267H9.0626C9.0583 19.4705 9.12275 18.7443 9.41064 18.0138C9.91338 16.7505 11.0993 15.6548 13.5786 14.7052C13.5786 14.6966 13.5786 14.7052 13.5829 14.688C13.5958 14.6021 13.6001 14.4302 13.5829 14.2154C13.5399 13.7814 13.411 13.1455 13.2134 12.4021C12.8181 10.9111 12.1478 8.95601 11.3915 7.0353L11.2884 6.7689L11.5118 6.58843C13.063 5.37671 13.7075 4.16499 13.8235 3.16983C13.9396 2.17898 13.5442 1.38749 12.9083 0.924718C12.5345 0.653585 12.079 0.49546 11.5806 0.494171V0.49589ZM7.19346 1.25343L7.22354 1.68355L6.89697 1.96714L7.82939 2.35085C7.88096 2.25761 7.93682 2.16694 7.99268 2.07886L8.16455 1.6539L7.19346 1.25343ZM10.1583 2.05093C10.5364 2.05093 10.8458 2.35858 10.8458 2.73843C10.8458 3.11827 10.5364 3.42593 10.1583 3.42593C9.78018 3.42593 9.4708 3.11827 9.4708 2.73843C9.4708 2.35858 9.78018 2.05093 10.1583 2.05093ZM4.28447 4.18648C3.63135 4.17358 3.08564 5.62163 3.75596 5.89663L4.13408 6.05132L4.89893 5.3853L4.82588 4.37124L4.44775 4.21655C4.40049 4.19937 4.35752 4.19077 4.31455 4.18648H4.28447ZM5.66807 5.28218L5.69814 5.71187L5.37158 5.99546L6.22666 6.34351L6.49307 5.62163L5.66807 5.28218ZM8.74463 6.13296C9.12275 6.13296 9.43213 6.44234 9.43213 6.82046C9.43213 7.19859 9.12275 7.50796 8.74463 7.50796C8.3665 7.50796 8.05713 7.19859 8.05713 6.82046C8.05713 6.44234 8.3665 6.13296 8.74463 6.13296ZM2.7376 8.30718C2.08018 8.29429 1.54307 9.74233 2.20478 10.0173L2.58721 10.172L3.35205 9.50601L3.27471 8.49194L2.90088 8.33726C2.85361 8.32007 2.81064 8.31148 2.76768 8.30718H2.7376ZM4.12119 9.40288L4.15127 9.83257L3.82471 10.1162L4.70127 10.4728L4.96768 9.75093L4.12119 9.40288ZM7.00869 10.2322C7.38682 10.2322 7.69619 10.5416 7.69619 10.9197C7.69619 11.2978 7.38682 11.6072 7.00869 11.6072C6.63057 11.6072 6.32119 11.2978 6.32119 10.9197C6.32119 10.5416 6.63057 10.2322 7.00869 10.2322ZM0.988769 12.5697C0.335644 12.5568 -0.204903 14.0048 0.460254 14.2798L0.838378 14.4345L1.60322 13.7685L1.52588 12.7544L1.15205 12.5998C1.10478 12.5826 1.06182 12.574 1.01885 12.5697H0.988769ZM2.37236 13.6654L2.40244 14.0951L2.07588 14.3787L3.05557 14.7783L3.34775 14.065L2.37236 13.6654ZM5.3501 14.4603C5.72822 14.4603 6.0376 14.7697 6.0376 15.1478C6.0376 15.5259 5.72822 15.8353 5.3501 15.8353C4.97197 15.8353 4.6626 15.5259 4.6626 15.1478C4.6626 14.7697 4.97197 14.4603 5.3501 14.4603Z" fill="#200D06"/>
</svg>
