<svg width="24" height="24" viewBox="0 0 24 24" fill="none" xmlns="http://www.w3.org/2000/svg">
<path d="M23.4672 6.50206C23.3308 6.01728 23.0631 5.57525 22.6911 5.22033C22.319 4.86541 21.8556 4.61008 21.3474 4.47997C19.959 3.96829 6.50831 3.71761 2.60593 4.49428C2.09766 4.62444 1.63422 4.87985 1.26215 5.23488C0.890073 5.58991 0.622449 6.03206 0.486144 6.51694C-0.140852 9.13999 -0.188252 14.8108 0.501744 17.4928C0.638141 17.9775 0.905805 18.4196 1.27788 18.7745C1.64994 19.1294 2.11333 19.3847 2.62153 19.5148C5.37132 20.1187 18.444 20.2034 21.363 19.5148C21.8712 19.3847 22.3346 19.1294 22.7067 18.7745C23.0787 18.4196 23.3464 17.9775 23.4828 17.4928C24.1512 14.6351 24.1986 9.3157 23.4672 6.50206Z" fill="#FF0101"/>
<path d="M16 12L10 8V16L16 12Z" fill="white"/>
</svg>
